<?xml version="1.0" encoding="UTF-8" standalone="no"?>
<svg
   viewBox="0 0 300 53.842339"
   preserveAspectRatio="none"
   version="1.1"
   id="svg8"
   sodipodi:docname="title-path.svg"
   inkscape:version="1.2.1 (9c6d41e410, 2022-07-14)"
   width="300"
   height="53.842339"
   xmlns:inkscape="http://www.inkscape.org/namespaces/inkscape"
   xmlns:sodipodi="http://sodipodi.sourceforge.net/DTD/sodipodi-0.dtd"
   xmlns="http://www.w3.org/2000/svg"
   xmlns:svg="http://www.w3.org/2000/svg">
  <g
     aria-label="Astrolabe"
     id="text228"
     style="font-size:72.7505px;stroke-width:6.06254"
     transform="matrix(1.0222318,0,0,1.0222318,-240.31251,-183.17401)">
    <path
       d="m 235.08612,230.98865 0.65475,-1.60051 4.58328,-0.94576 q 1.74601,-0.36375 2.83727,-1.09126 1.09126,-0.7275 2.10977,-1.81876 l 32.66497,-35.13849 0.21825,-5.60179 q 2.32802,-0.0727 4.21953,-0.87301 1.96427,-0.873 3.20103,-1.89151 1.23675,-1.09126 1.52776,-1.81876 h 1.0185 l -3.85577,46.26932 q -0.0728,0.873 0.582,1.30951 0.65476,0.4365 2.25527,0.80025 l 3.41927,0.80026 -0.65475,1.60051 h -24.00767 l 0.65475,-1.60051 4.00128,-0.80026 q 2.54627,-0.50925 3.34652,-1.23676 0.80026,-0.80025 1.01851,-2.69177 l 2.91002,-32.44672 h 1.74601 l -31.35546,33.39248 q -0.94576,1.16401 -0.58201,1.81876 0.43651,0.65476 1.52776,0.87301 l 5.82004,1.09126 -0.65475,1.60051 z m 21.97065,-16.44162 1.30951,-2.40076 h 20.44289 l -1.01851,2.40076 z"
       style="font-style:italic;font-weight:bold;font-family:'Ibarra Real Nova', serif;-inkscape-font-specification:'Ibarra Real Nova, serif Bold Italic'"
       id="path280" />
    <path
       d="m 305.2176,231.57065 q -2.76451,0 -5.09253,-0.94576 -2.32802,-0.94575 -3.71028,-2.83726 -1.38226,-1.96427 -1.38226,-4.72879 0,-2.47351 1.30951,-3.63752 1.30951,-1.23676 2.76452,-1.23676 1.45501,0 2.54627,0.94576 1.16401,0.873 1.16401,2.40076 0,0.87301 -0.36375,1.52776 -0.36376,0.58201 -0.72751,1.09126 -0.50925,0.582 -0.94576,1.16401 -0.4365,0.582 -0.4365,1.38226 0,1.09126 1.38226,1.96426 1.38226,0.80026 3.20102,0.80026 2.18252,0 3.63753,-1.38226 1.45501,-1.45501 1.45501,-4.36503 0,-1.67326 -0.87301,-3.34653 -0.873,-1.74601 -2.18251,-3.56477 -1.60051,-2.32802 -3.05552,-4.72878 -1.38226,-2.40077 -1.38226,-5.38354 0,-2.40077 1.23675,-4.29228 1.23676,-1.96426 3.56478,-3.12827 2.32802,-1.16401 5.45629,-1.16401 3.63752,0 6.32929,1.74601 2.76452,1.67326 2.76452,5.09254 0,1.38226 -0.87301,2.47351 -0.873,1.01851 -2.54626,1.01851 -1.74602,0 -2.54627,-0.94576 -0.80026,-0.94575 -0.80026,-2.32801 0,-0.21825 0,-0.50925 0.0727,-0.36376 0.1455,-0.65476 0.0728,-0.36375 0.14551,-0.7275 0.0728,-0.43651 0.0728,-0.65476 0,-1.09126 -0.87301,-1.81876 -0.87301,-0.72751 -2.32802,-0.72751 -1.38226,0 -2.47351,1.01851 -1.09126,1.01851 -1.09126,3.34652 0,1.81877 1.16401,3.85578 1.23676,1.96426 2.54626,3.78303 1.67327,2.25526 2.83727,4.29228 1.16401,1.96426 1.16401,5.23803 0,3.34653 -1.67326,5.60179 -1.60051,2.18252 -4.21953,3.27377 -2.54627,1.09126 -5.31079,1.09126 z"
       style="font-style:italic;font-weight:bold;font-family:'Ibarra Real Nova', serif;-inkscape-font-specification:'Ibarra Real Nova, serif Bold Italic'"
       id="path282" />
    <path
       d="m 326.24251,231.57065 q -2.91002,0 -3.85577,-1.89151 -0.87301,-1.96427 0.291,-4.87429 l 9.09381,-23.35291 h -4.87428 l 1.0185,-2.54626 h 5.01979 l 2.32802,-5.82004 7.6388,-0.72751 -2.61902,6.47479 h 5.96554 l -1.01851,2.54627 h -5.96554 l -8.80281,22.33441 q -0.50925,1.38226 -0.291,2.03701 0.291,0.65476 1.01851,0.65476 0.582,0 1.89151,-1.38226 1.30951,-1.38226 2.76452,-3.34653 1.45501,-2.03701 2.54627,-3.78302 l 1.45501,0.94575 q -4.43778,6.54755 -7.63881,9.67582 -3.20102,3.05552 -5.96554,3.05552 z"
       style="font-style:italic;font-weight:bold;font-family:'Ibarra Real Nova', serif;-inkscape-font-specification:'Ibarra Real Nova, serif Bold Italic'"
       id="path284" />
    <path
       d="m 344.86669,231.86165 10.47608,-26.33568 q 0.4365,-1.09126 0.291,-1.60051 -0.0728,-0.50925 -0.65476,-0.50925 -0.65475,0 -2.03701,1.38226 -1.38226,1.38226 -2.98277,3.34652 -1.52776,1.96426 -2.69177,3.78303 l -1.45501,-0.94576 q 4.58328,-6.4748 7.78431,-9.60307 3.27377,-3.12827 6.18379,-3.12827 2.54627,0 3.49202,1.81876 0.94576,1.74602 -0.291,4.65604 l -5.60179,12.87683 h 0.1455 q 1.52776,-2.76451 3.41928,-6.11104 1.96426,-3.34652 4.14677,-6.32929 2.25527,-3.05552 4.80154,-5.01979 2.54627,-1.96426 5.31078,-1.96426 2.54627,0 3.85578,1.38226 1.38226,1.30951 1.38226,3.20102 0,2.25527 -1.38226,3.56478 -1.30951,1.30951 -2.98277,1.30951 -0.94576,0 -1.52776,-0.43651 -0.582,-0.4365 -0.87301,-0.94575 -0.50925,-1.01851 -1.0185,-1.74602 -0.43651,-0.80025 -1.45501,-0.80025 -1.60051,0 -3.92853,2.25526 -2.25527,2.18252 -4.87428,6.0383 -2.54627,3.85577 -5.09254,8.80281 -2.54627,4.87428 -4.72878,10.18507 z"
       style="font-style:italic;font-weight:bold;font-family:'Ibarra Real Nova', serif;-inkscape-font-specification:'Ibarra Real Nova, serif Bold Italic'"
       id="path286" />
    <path
       d="m 390.7722,231.6434 q -4.94703,0 -8.0753,-2.54627 -3.12827,-2.61901 -3.12827,-7.6388 0,-4.80153 1.52776,-8.94831 1.60051,-4.21953 4.21952,-7.42055 2.69177,-3.27377 6.0383,-5.09254 3.41927,-1.81876 6.98405,-1.81876 5.09253,0 7.9298,2.91002 2.83727,2.91002 2.83727,7.3478 0,4.65603 -1.45501,8.87556 -1.45501,4.14678 -4.00128,7.42055 -2.54627,3.20103 -5.89279,5.09254 -3.27377,1.81876 -6.98405,1.81876 z m -1.45501,-2.32801 q 1.74601,0 3.56478,-1.74602 1.89151,-1.74601 3.56477,-4.51053 1.67326,-2.83727 2.98277,-6.11104 1.38226,-3.27377 2.18252,-6.32929 0.80025,-3.12828 0.80025,-5.38354 0,-4.65603 -3.05552,-4.65603 -1.74601,0 -3.56477,1.74601 -1.81877,1.74601 -3.56478,4.51053 -1.67326,2.76452 -2.98277,6.03829 -1.30951,3.27377 -2.10976,6.40205 -0.80026,3.05552 -0.80026,5.31078 0,2.25527 0.80026,3.49203 0.80025,1.23676 2.18251,1.23676 z"
       style="font-style:italic;font-weight:bold;font-family:'Ibarra Real Nova', serif;-inkscape-font-specification:'Ibarra Real Nova, serif Bold Italic'"
       id="path288" />
    <path
       d="m 414.70704,231.57065 q -2.54627,0 -3.78303,-1.74601 -1.23676,-1.74601 -0.21825,-4.36503 l 15.35036,-38.70327 q 0.582,-1.45501 0.0727,-2.03701 -0.43651,-0.65476 -1.30951,-0.87301 l -1.81876,-0.50925 0.36375,-1.30951 q 3.85578,-0.65476 6.54754,-1.09126 2.69177,-0.50925 5.67454,-1.74601 l 1.01851,0.50925 q -0.94576,1.60051 -1.81876,3.49203 -0.80026,1.81876 -1.45501,3.49202 l -14.6956,37.10276 q -0.50926,1.30951 -0.21826,1.96426 0.36376,0.65476 1.01851,0.65476 1.01851,0 2.83727,-2.10977 1.81876,-2.10976 4.94704,-6.40204 l 1.45501,0.94575 q -4.58329,6.4748 -7.85706,9.60307 -3.20102,3.12827 -6.11104,3.12827 z"
       style="font-style:italic;font-weight:bold;font-family:'Ibarra Real Nova', serif;-inkscape-font-specification:'Ibarra Real Nova, serif Bold Italic'"
       id="path290" />
    <path
       d="m 435.07713,231.57065 q -2.69176,0 -4.00127,-1.30951 -1.23676,-1.38226 -1.23676,-3.92852 0,-2.83727 1.52776,-6.3293 1.52776,-3.56477 4.14678,-7.2023 2.61902,-3.71027 5.89279,-6.83855 3.56477,-3.34652 6.9113,-5.52903 3.41927,-2.25527 6.62029,-2.25527 1.89151,0 2.98277,0.80026 1.16401,0.80025 1.81876,2.03701 h 0.21826 l 5.09253,-3.20102 h 0.94576 l -10.11232,25.53542 q -0.50926,1.23676 -0.36375,2.18252 0.1455,0.87301 0.94575,0.87301 0.65476,0 2.03702,-1.38226 1.45501,-1.38226 2.98277,-3.34653 1.60051,-2.03701 2.76452,-3.78302 l 1.45501,0.94575 q -4.36503,6.4748 -7.56606,9.60307 -3.20102,3.12827 -5.96554,3.12827 -2.91002,0 -3.78302,-1.81876 -0.87301,-1.89151 0.0727,-4.29228 l 1.45501,-3.63753 h -0.36376 q -1.67326,2.69177 -4.21952,4.94704 -2.47352,2.18251 -5.23804,3.49202 -2.69177,1.30951 -5.01979,1.30951 z m 5.74729,-6.47479 q 1.89152,0 3.85578,-1.30951 1.96426,-1.38226 3.78303,-3.56478 1.89151,-2.25526 3.34652,-4.80153 1.45501,-2.61902 2.25527,-5.09254 0.873,-2.54626 0.873,-4.51053 0,-1.67326 -0.80025,-2.40076 -0.80026,-0.72751 -2.25527,-0.72751 -1.81876,0 -4.14678,1.23676 -2.32801,1.16401 -4.29228,3.27377 -2.69177,2.69177 -4.51053,6.25655 -1.81876,3.56477 -1.81876,6.98404 0,2.47352 0.94575,3.56478 1.01851,1.09126 2.76452,1.09126 z"
       style="font-style:italic;font-weight:bold;font-family:'Ibarra Real Nova', serif;-inkscape-font-specification:'Ibarra Real Nova, serif Bold Italic'"
       id="path292" />
    <path
       d="m 476.03576,231.57065 q -3.34652,0 -5.31079,-1.81876 -1.96426,-1.81876 -1.96426,-4.87428 0,-1.23676 0.291,-2.54627 0.36375,-1.38226 1.01851,-3.05552 l 12.73134,-32.51948 q 0.582,-1.38226 0.0727,-2.03701 -0.43651,-0.65476 -1.30951,-0.87301 l -1.81877,-0.50925 0.36376,-1.30951 q 3.85577,-0.65476 6.62029,-1.09126 2.76452,-0.50925 5.74729,-1.74601 l 1.01851,0.50925 q -0.94576,1.60051 -1.81876,3.49203 -0.80026,1.81876 -1.45501,3.49202 l -8.65731,21.3159 h 0.1455 q 2.25526,-2.98277 4.72878,-5.16529 2.47352,-2.25526 5.09254,-3.41927 2.61901,-1.23676 5.09253,-1.23676 2.10977,0 3.56478,1.16401 1.45501,1.09126 1.45501,4.29228 0,2.91002 -1.74602,6.62029 -1.67326,3.63753 -4.51053,7.42056 -2.76452,3.71027 -6.18379,6.91129 -3.34652,3.12827 -6.83855,5.09254 -3.41927,1.89151 -6.32929,1.89151 z m 3.56477,-4.51053 q 1.81877,0 4.14678,-1.23676 2.32802,-1.23676 4.29228,-3.27377 1.81876,-1.81876 3.27377,-4.14678 1.45501,-2.40077 2.25527,-4.80153 0.87301,-2.47352 0.87301,-4.43778 0,-1.89152 -0.87301,-3.12828 -0.80026,-1.23675 -2.91002,-1.23675 -1.89151,0 -3.85578,1.38226 -1.96426,1.3095 -3.85577,3.49202 -1.81877,2.18252 -3.27378,4.72878 -1.45501,2.54627 -2.32801,5.09254 -0.80026,2.47352 -0.80026,4.43778 0,1.67326 0.80026,2.40077 0.80025,0.7275 2.25526,0.7275 z"
       style="font-style:italic;font-weight:bold;font-family:'Ibarra Real Nova', serif;-inkscape-font-specification:'Ibarra Real Nova, serif Bold Italic'"
       id="path294" />
    <path
       d="m 507.90049,231.57065 q -3.20102,0 -4.72878,-2.10976 -1.52776,-2.18252 -1.52776,-5.31079 0,-4.58328 1.74601,-8.58456 1.81876,-4.07403 4.58328,-7.3478 2.76452,-3.34652 5.67454,-5.82004 2.40077,-2.03701 4.87429,-3.12827 2.54626,-1.09126 4.58328,-1.09126 2.76452,0 4.07403,1.23676 1.38226,1.23676 1.38226,3.05552 0,2.61902 -2.10977,5.23804 -2.03701,2.61901 -6.7658,4.72878 -4.72878,2.03701 -12.87683,3.12827 l 0.1455,-2.10976 q 4.80153,-0.36376 8.00255,-1.89152 3.20102,-1.60051 4.72878,-3.56477 1.60052,-2.03702 1.60052,-3.63753 0,-1.96426 -1.89152,-1.96426 -1.96426,0 -3.85577,1.60051 -1.81877,1.52776 -3.34653,4.07403 -1.45501,2.54627 -2.40076,5.52904 -0.87301,2.98277 -0.87301,5.89279 0,2.83727 1.09126,4.29228 1.16401,1.38226 3.34652,1.38226 1.52776,0 3.12827,-0.80026 1.60051,-0.80025 3.27377,-2.47352 1.67327,-1.74601 3.20103,-4.36503 l 1.38226,0.87301 q -2.03702,3.56478 -4.87429,6.54755 -2.83727,2.98277 -5.89279,4.80153 -3.05552,1.81876 -5.67454,1.81876 z"
       style="font-style:italic;font-weight:bold;font-family:'Ibarra Real Nova', serif;-inkscape-font-specification:'Ibarra Real Nova, serif Bold Italic'"
       id="path296" />
  </g>
</svg>
