<svg width="24" height="24" viewBox="0 0 24 24" fill="none" xmlns="http://www.w3.org/2000/svg">
<path d="M17.6392 0.113919C17.1362 0.335919 16.3002 0.96492 15.3062 1.87792L16.2202 3.17192C16.8642 2.48492 17.5162 1.86392 18.1752 1.33492C18.2272 1.29292 18.2512 1.27392 18.2512 1.27392C18.2272 1.29292 18.1992 1.31592 18.1752 1.33492C17.9622 1.50992 17.3142 2.07692 16.3392 3.19892C17.2792 3.16392 18.7222 3.01992 19.9002 2.86992C20.2522 1.39892 19.5572 0.726919 19.5572 0.726919C19.5572 0.726919 18.6742 -0.343081 17.6392 0.113919Z" fill="url(#paint0_linear)"/>
<path d="M14.5632 10.9869C14.4462 11.0019 14.3272 11.0189 14.2032 11.0339C14.2032 11.0339 14.2012 11.0339 14.2012 11.0349C14.2642 11.0279 14.3252 11.0209 14.3862 11.0139C14.4442 11.0049 14.5032 10.9959 14.5632 10.9869Z" fill="#BD2330"/>
<path opacity="0.35" d="M14.5632 10.9869C14.4462 11.0019 14.3272 11.0189 14.2032 11.0339C14.2032 11.0339 14.2012 11.0339 14.2012 11.0349C14.2642 11.0279 14.3252 11.0209 14.3862 11.0139C14.4442 11.0049 14.5032 10.9959 14.5632 10.9869Z" fill="#BD2330"/>
<path d="M14.8692 9.8549C14.8692 9.8549 14.8692 9.8559 14.8692 9.8549C14.8672 9.8549 14.8672 9.8549 14.8672 9.8559C14.8862 9.8549 14.9062 9.8519 14.9242 9.84889C15.0022 9.84089 15.0782 9.83089 15.1522 9.81689C15.0602 9.82989 14.9672 9.8419 14.8692 9.8549Z" fill="#BD2330"/>
<path opacity="0.35" d="M14.8692 9.8549C14.8692 9.8549 14.8692 9.8559 14.8692 9.8549C14.8672 9.8549 14.8672 9.8549 14.8672 9.8559C14.8862 9.8549 14.9062 9.8519 14.9242 9.84889C15.0022 9.84089 15.0782 9.83089 15.1522 9.81689C15.0602 9.82989 14.9672 9.8419 14.8692 9.8549Z" fill="#BD2330"/>
<path d="M7.294 17.335C7.453 17.002 7.622 16.661 7.793 16.314C7.832 16.235 7.871 16.156 7.911 16.077C7.911 16.076 7.913 16.074 7.913 16.073L6.713 14.302C6.709 14.32 6.704 14.341 6.698 14.362C6.548 14.929 6.44 15.493 6.386 16.053C6.385 16.073 6.383 16.092 6.381 16.111C6.006 15.662 5.007 15.225 5.009 15.229C5.726 16.007 6.27 16.779 6.35 17.537C5.966 17.595 5.441 17.511 4.834 17.344C5.466 17.78 5.941 17.9 6.128 17.933C5.546 17.961 4.941 18.259 4.331 18.604C5.223 18.332 5.944 18.223 6.46 18.311C5.641 20.048 4.822 21.964 4 24C4.253 23.944 4.402 23.817 4.486 23.646C4.633 23.278 5.603 20.859 7.125 17.682C7.17 17.592 7.212 17.5 7.257 17.41C7.268 17.383 7.281 17.359 7.294 17.335ZM9.145 16.189L8.18 16.268C8.149 16.329 8.121 16.389 8.09 16.45C7.932 16.774 7.772 17.105 7.615 17.443C7.614 17.447 7.612 17.453 7.608 17.457C7.586 17.504 7.562 17.553 7.541 17.6C7.434 17.828 7.341 18.033 7.128 18.498C7.479 18.618 7.76 18.934 8.028 19.293C8 18.922 7.796 18.574 7.405 18.304C9.135 18.362 10.626 18.035 11.398 17.088C11.466 17.003 11.53 16.916 11.587 16.82C11.236 17.153 10.801 17.294 9.983 17.26C11.188 16.856 11.791 16.468 12.327 15.827C12.453 15.674 12.578 15.509 12.704 15.324C11.648 16.134 10.43 16.364 9.145 16.189Z" fill="url(#paint1_linear)"/>
<path d="M8.53994 14.8349C8.74794 14.4319 8.96294 14.0239 9.18194 13.6129C9.39294 13.2179 9.60794 12.8209 9.83094 12.4239C10.0529 12.0269 10.2799 11.6249 10.5089 11.2249C10.7429 10.8179 10.9839 10.4129 11.2309 10.0089C11.4739 9.60887 11.7189 9.21087 11.9689 8.81987C12.0579 8.67787 12.1509 8.53587 12.2419 8.39587C12.3999 8.15287 12.5589 7.91087 12.7209 7.67187C12.7299 7.65987 12.7379 7.64587 12.7469 7.63287L11.5539 5.86987C11.5359 5.89287 11.5149 5.91887 11.4949 5.94087C11.2169 6.28087 10.9399 6.62787 10.6689 6.98287C10.3949 7.34087 10.1259 7.70687 9.86194 8.07687C9.64094 8.38887 9.42394 8.70287 9.21094 9.02287C9.16894 9.08687 9.12794 9.15187 9.08494 9.21587C8.82494 9.61687 8.59194 10.0019 8.37794 10.3759C8.13694 10.7969 7.92594 11.1999 7.74194 11.5809C7.61994 11.8329 7.50994 12.0739 7.40794 12.3069C7.32494 12.5059 7.24694 12.7059 7.16894 12.9039C6.99094 13.3709 6.83694 13.8369 6.71094 14.3009L7.90894 16.0719C8.06694 15.7549 8.22994 15.4329 8.39694 15.1079C8.44794 15.0159 8.49194 14.9239 8.53994 14.8349ZM17.4359 7.15987C17.1109 7.30587 16.5549 7.43587 16.1059 7.49887C16.1009 7.49987 16.0929 7.49987 16.0859 7.50187C16.0399 7.50787 15.9969 7.51287 15.9509 7.51787C15.9579 7.51487 15.9659 7.51187 15.9729 7.50987L12.9439 7.75887C12.9439 7.76487 12.9379 7.77387 12.9329 7.78187C12.8979 7.83487 12.8639 7.88687 12.8289 7.93987C12.7249 8.09987 12.6209 8.26187 12.5139 8.42887C12.3989 8.60987 12.2839 8.79287 12.1669 8.98187C12.1079 9.07587 12.0489 9.17187 11.9889 9.26987C11.8109 9.55987 11.6309 9.85987 11.4469 10.1699C11.2219 10.5489 10.9909 10.9449 10.7589 11.3559C10.5379 11.7479 10.3099 12.1519 10.0839 12.5709C9.86694 12.9679 9.64794 13.3789 9.42594 13.8009C9.22694 14.1769 9.02694 14.5659 8.82694 14.9649C8.81694 14.9829 8.80794 15.0039 8.79894 15.0219C8.59794 15.4179 8.39694 15.8249 8.19394 16.2409C8.19094 16.2509 8.18494 16.2589 8.18094 16.2699L9.14594 16.1909C9.12694 16.1879 9.10694 16.1869 9.08794 16.1839C10.2399 16.0769 11.7739 15.4309 12.7619 14.6349C13.2179 14.2679 13.6319 13.8349 14.0139 13.3279C14.2979 12.9519 14.5669 12.5319 14.8229 12.0699C15.0459 11.6659 15.2589 11.2269 15.4649 10.7529C15.1989 10.8569 14.8969 10.9349 14.5629 10.9879C14.5039 10.9969 14.4449 11.0059 14.3829 11.0139C14.3219 11.0219 14.2609 11.0299 14.1969 11.0349C14.1969 11.0349 14.1989 11.0349 14.1989 11.0339C15.2749 10.7239 15.9519 10.1269 16.4429 9.39487C16.1609 9.53987 15.7009 9.72787 15.1499 9.81887C15.0759 9.83187 14.9999 9.84087 14.9219 9.85087C14.9049 9.85187 14.8869 9.85487 14.8699 9.85687C15.2439 9.74087 15.5569 9.60887 15.8289 9.45487C15.8879 9.42187 15.9459 9.38787 15.9979 9.35187C16.0809 9.29787 16.1589 9.24087 16.2369 9.18187C16.2859 9.14287 16.3319 9.10387 16.3779 9.06387C16.4849 8.96787 16.5859 8.86487 16.6779 8.75387C16.7059 8.71887 16.7359 8.68587 16.7619 8.64987C16.7989 8.59887 16.8319 8.54687 16.8659 8.49887C17.0159 8.27387 17.1369 8.07087 17.2319 7.89487C17.2799 7.80587 17.3209 7.72587 17.3579 7.64787C17.3729 7.61787 17.3859 7.58787 17.3989 7.55887C17.4379 7.47387 17.4669 7.39887 17.4909 7.33187C17.5279 7.23187 17.5509 7.15287 17.5619 7.09587C17.5249 7.11787 17.4839 7.13987 17.4359 7.15987Z" fill="url(#paint2_linear)"/>
<path d="M16.3412 3.19791C16.0722 3.50791 15.7792 3.85891 15.4602 4.25791C15.4432 4.27791 15.4252 4.30091 15.4102 4.31991C15.1372 4.66391 14.8482 5.04191 14.5402 5.45691C14.2762 5.81491 14.0022 6.19891 13.7162 6.61091C13.4672 6.97091 13.2112 7.35291 12.9462 7.75691L15.9752 7.50791C16.8582 7.20391 17.2512 6.92991 17.6332 6.53091C17.7332 6.42191 17.8372 6.30791 17.9372 6.18791C18.2492 5.82391 18.5532 5.42391 18.8262 5.02591C19.0892 4.64091 19.3212 4.26091 19.4992 3.91591C19.6122 3.69791 19.7032 3.49491 19.7662 3.31591C19.8212 3.15891 19.8642 3.00891 19.8982 2.86591C18.7252 3.01891 17.2802 3.16291 16.3412 3.19791ZM14.3642 5.37691C14.6592 4.99091 14.9602 4.61891 15.2622 4.25791C15.2792 4.23691 15.2992 4.21491 15.3162 4.19391C15.6142 3.83991 15.9172 3.49791 16.2192 3.17291L15.3052 1.87891C15.2362 1.94091 15.1682 2.00491 15.0972 2.07191C14.8322 2.31891 14.5592 2.58291 14.2772 2.86491C13.9602 3.18191 13.6362 3.51991 13.3042 3.87591C12.9992 4.20391 12.6882 4.54691 12.3762 4.90391C12.1112 5.20691 11.8472 5.51791 11.5842 5.83691C11.5752 5.84791 11.5652 5.86091 11.5562 5.87291L12.7492 7.63691C13.0012 7.25491 13.2612 6.88191 13.5202 6.51791C13.7982 6.12691 14.0802 5.74691 14.3642 5.37691Z" fill="url(#paint3_linear)"/>
<path d="M14.3832 11.012C14.3222 11.02 14.2612 11.027 14.1982 11.033C14.2602 11.028 14.3232 11.02 14.3832 11.012Z" fill="#BD2330"/>
<path opacity="0.35" d="M14.3832 11.012C14.3222 11.02 14.2612 11.027 14.1982 11.033C14.2602 11.028 14.3232 11.02 14.3832 11.012Z" fill="#BD2330"/>
<path d="M14.3832 11.012C14.3222 11.02 14.2612 11.027 14.1982 11.033C14.2602 11.028 14.3232 11.02 14.3832 11.012Z" fill="url(#paint4_linear)"/>
<path d="M14.8672 9.856C14.8862 9.855 14.9062 9.852 14.9242 9.849C14.9062 9.851 14.8872 9.855 14.8672 9.856Z" fill="#BD2330"/>
<path opacity="0.35" d="M14.8672 9.856C14.8862 9.855 14.9062 9.852 14.9242 9.849C14.9062 9.851 14.8872 9.855 14.8672 9.856Z" fill="#BD2330"/>
<path d="M14.8672 9.856C14.8862 9.855 14.9062 9.852 14.9242 9.849C14.9062 9.851 14.8872 9.855 14.8672 9.856Z" fill="url(#paint5_linear)"/>
<path d="M14.8672 9.85591C14.8692 9.85591 14.8692 9.85492 14.8672 9.85591C14.8692 9.85492 14.8692 9.85591 14.8672 9.85591Z" fill="#BD2330"/>
<path opacity="0.35" d="M14.8672 9.85591C14.8692 9.85591 14.8692 9.85492 14.8672 9.85591C14.8692 9.85492 14.8692 9.85591 14.8672 9.85591Z" fill="#BD2330"/>
<path d="M14.8672 9.85591C14.8692 9.85591 14.8692 9.85492 14.8672 9.85591C14.8692 9.85492 14.8692 9.85591 14.8672 9.85591Z" fill="url(#paint6_linear)"/>
<path d="M19.4321 16.148C19.4321 16.128 19.4531 16.083 19.4791 16.048L19.4321 16.148Z" fill="#A91E22"/>
<defs>
<linearGradient id="paint0_linear" x1="16.4444" y1="3.34038" x2="19.4863" y2="0.767645" gradientUnits="userSpaceOnUse">
<stop stop-color="#F59722"/>
<stop offset="1" stop-color="#F28D24"/>
</linearGradient>
<linearGradient id="paint1_linear" x1="3.64732" y1="23.1979" x2="8.59015" y2="15.6807" gradientUnits="userSpaceOnUse">
<stop stop-color="#272761"/>
<stop offset="1" stop-color="#8B2673"/>
</linearGradient>
<linearGradient id="paint2_linear" x1="7.70409" y1="15.6052" x2="15.4589" y2="6.45242" gradientUnits="userSpaceOnUse">
<stop stop-color="#A2205F"/>
<stop offset="1" stop-color="#D12C33"/>
</linearGradient>
<linearGradient id="paint3_linear" x1="14.1533" y1="7.18646" x2="16.629" y2="3.09275" gradientUnits="userSpaceOnUse">
<stop stop-color="#D23231"/>
<stop offset="1" stop-color="#E87826"/>
</linearGradient>
<linearGradient id="paint4_linear" x1="6.09336" y1="28.1073" x2="18.9017" y2="0.61074" gradientUnits="userSpaceOnUse">
<stop offset="0.3233" stop-color="#9D2064"/>
<stop offset="0.6302" stop-color="#C92038"/>
<stop offset="0.7514" stop-color="#CD2035"/>
<stop offset="1" stop-color="#E87827"/>
</linearGradient>
<linearGradient id="paint5_linear" x1="6.06741" y1="28.2927" x2="18.8293" y2="0.896525" gradientUnits="userSpaceOnUse">
<stop offset="0.3233" stop-color="#9D2064"/>
<stop offset="0.6302" stop-color="#C92038"/>
<stop offset="0.7514" stop-color="#CD2035"/>
<stop offset="1" stop-color="#E87827"/>
</linearGradient>
<linearGradient id="paint6_linear" x1="13.3313" y1="12.6232" x2="15.8914" y2="7.09096" gradientUnits="userSpaceOnUse">
<stop offset="0.3233" stop-color="#9D2064"/>
<stop offset="0.6302" stop-color="#C92038"/>
<stop offset="0.7514" stop-color="#CD2035"/>
<stop offset="1" stop-color="#E87827"/>
</linearGradient>
</defs>
</svg>
