<svg width="24" height="24" viewBox="0 0 24 24" fill="none" xmlns="http://www.w3.org/2000/svg">
<path d="M20.7553 10.06L14.6713 10.059C14.1843 10.001 13.8143 9.57195 13.8143 9.06695V2.68195C13.8143 2.13695 13.3723 1.69995 12.8313 1.69995H10.7023C10.1573 1.69995 9.72028 2.14195 9.72028 2.68195V9.13595C9.69328 9.62295 9.29128 10.016 8.80928 10.06H7.21528C6.74428 9.99695 6.38328 9.60995 6.35328 9.13595V2.68295C6.35328 2.13795 5.91128 1.70095 5.37128 1.70095H3.24228C2.69628 1.70095 2.25928 2.14295 2.25928 2.68295V21.318C2.25928 21.861 2.69928 22.301 3.24228 22.301H20.7603C21.3043 22.301 21.7423 21.859 21.7423 21.318V11.042C21.7393 10.499 21.2983 10.06 20.7553 10.06ZM17.9513 17.107C17.9503 17.651 17.5093 18.088 16.9683 18.088H14.8393C14.2943 18.088 13.8563 17.646 13.8563 17.106V15.096C13.8563 14.551 14.2983 14.113 14.8393 14.113H16.9693C17.5143 14.113 17.9513 14.555 17.9513 15.096V17.107Z" fill="#F26722"/>
</svg>
