<svg width="24" height="24" viewBox="0 0 24 24" fill="#00678F" xmlns="http://www.w3.org/2000/svg">
<path d="M22.8383 22.926C22.4883 22.725 22.1583 22.495 21.8313 22.254C21.6513 22.121 21.4713 21.987 21.2913 21.873C21.0223 21.703 20.7293 21.569 20.4193 21.425C20.1073 21.282 19.7953 21.137 19.5003 20.956C19.1633 20.742 18.8443 20.5 18.5263 20.257C18.2143 20.028 17.8753 19.595 17.6803 19.269C17.6223 19.178 17.5863 19.08 17.5563 19C17.5343 18.94 17.5093 18.873 17.4883 18.851L17.3873 18.751L17.4023 18.61C17.4463 18.194 17.8363 18.093 18.0453 18.038C18.0983 18.024 18.1503 18.011 18.1953 17.993C18.8213 17.728 19.5503 17.587 20.4643 17.558C20.3853 17.506 20.3103 17.46 20.2573 17.427C20.1443 17.357 20.0453 17.295 19.9813 17.246C19.5163 16.912 19.0183 16.56 18.5193 16.252C18.3843 16.17 18.1663 16.092 17.9563 16.018C17.8033 15.964 17.6533 15.911 17.5313 15.855C17.4293 15.814 17.2773 15.769 17.1133 15.72C16.6223 15.573 16.1143 15.421 15.8983 15.119C15.4793 14.574 15.1863 13.913 14.9023 13.273L14.8163 13.08C14.6703 12.746 14.5083 12.408 14.3463 12.067C14.1603 11.676 13.9723 11.283 13.8053 10.895C13.7333 10.738 13.6763 10.584 13.6203 10.431C13.5563 10.257 13.4933 10.086 13.4003 9.907C12.3453 7.869 10.7813 6.154 8.87728 4.948C8.15828 4.497 7.48128 4.172 6.80928 3.957C6.61028 3.897 6.36828 3.887 6.11228 3.876C5.93628 3.868 5.77328 3.831 5.59728 3.831C5.39928 3.83 5.19828 3.824 5.00628 3.771C4.79228 3.711 4.61028 3.55 4.44828 3.404C4.38528 3.347 4.32528 3.292 4.26528 3.249C3.84328 2.963 3.41428 2.766 2.85828 2.541C2.74528 2.489 2.62828 2.446 2.50928 2.412C2.45028 2.395 2.39028 2.381 2.32928 2.373C2.30428 2.37 2.27828 2.361 2.25328 2.363C2.21728 2.365 2.17728 2.38 2.14528 2.396C2.00128 2.465 2.11728 2.717 2.15928 2.809C2.28928 3.087 2.46128 3.299 2.64328 3.524C2.74528 3.649 2.84828 3.777 2.94728 3.918L3.08628 4.112C3.30728 4.418 3.55828 4.765 3.71628 5.107C3.93028 5.568 4.08228 6.053 4.22928 6.522C4.35428 6.92 4.47728 7.317 4.63928 7.695C4.75328 7.96 4.94228 8.297 5.14528 8.594C5.19028 8.654 5.25628 8.714 5.32228 8.776C5.47728 8.922 5.65328 9.087 5.73228 9.339C5.90628 9.613 5.70628 10.203 5.44428 10.883C5.40928 10.975 5.37828 11.054 5.36028 11.11C5.00428 12.233 5.05728 13.847 5.48528 14.86L5.53228 14.972C5.63428 15.216 5.72228 15.411 5.83528 15.542L5.84828 15.433C5.92028 14.777 5.98728 14.157 6.22928 13.61C6.34928 13.314 6.54928 13.075 6.72528 12.863C6.84228 12.722 6.96028 12.459 7.17228 12.435C7.47128 12.402 7.60228 12.728 7.66428 12.96C7.68028 13.021 7.69728 13.084 7.71728 13.122L7.76128 13.226C7.94128 13.655 8.13428 14.119 8.35328 14.543C8.88328 15.571 9.41728 16.44 9.98828 17.201C10.5163 17.904 11.1563 18.498 11.8593 19.024C11.4983 18.973 11.0793 18.97 10.7303 18.866C10.4323 18.777 10.1793 18.492 9.97028 18.277C9.85828 18.162 9.74928 18.049 9.63028 17.959C9.31728 17.723 8.25328 16.878 7.62928 15.892C7.54328 15.711 7.46128 15.542 7.37928 15.378C7.37028 15.442 7.36328 15.506 7.35528 15.569C7.28628 16.129 7.20728 16.762 6.56728 17.018C6.42228 17.078 6.27028 17.109 6.11928 17.109C5.34228 17.109 4.82028 16.295 4.64928 16.028C3.82228 14.681 3.63328 12.531 4.18628 10.794C4.22428 10.674 4.25028 10.546 4.27728 10.419C4.32528 10.188 4.37428 9.95 4.48428 9.738C4.46328 9.708 4.43028 9.677 4.37928 9.632C4.32128 9.58 4.25728 9.522 4.19928 9.442C3.97328 9.135 3.78628 8.788 3.62728 8.486C3.37928 8.001 3.18928 7.457 3.00628 6.931L2.84028 6.462C2.78728 6.326 2.75028 6.185 2.71528 6.045C2.68428 5.924 2.65428 5.804 2.60728 5.688C2.48628 5.425 2.26928 5.142 2.05928 4.867L1.88728 4.639C1.82728 4.554 1.75528 4.463 1.67428 4.362C1.24028 3.817 0.51628 2.907 0.91628 1.944C1.16728 1.327 1.66928 1 2.36728 1C3.32128 1 4.42528 1.607 4.99928 1.969C5.09728 2.032 5.19828 2.12 5.30328 2.212C5.40528 2.302 5.50928 2.394 5.59828 2.445C5.76428 2.452 6.46328 2.494 6.64728 2.502L6.88328 2.551C7.53028 2.701 8.14128 2.842 8.68028 3.148C11.3893 4.738 13.0273 6.323 14.5273 8.8C14.7473 9.16 14.8973 9.538 15.0423 9.903C15.1233 10.107 15.2053 10.313 15.3003 10.52C15.7293 11.516 16.1353 12.377 16.5093 13.087C16.5683 13.205 16.6203 13.319 16.6733 13.435C16.7993 13.712 16.9173 13.975 17.0853 14.179C17.1243 14.22 17.2483 14.262 17.3223 14.287C17.4103 14.317 17.4963 14.348 17.5663 14.383C17.7553 14.48 17.9573 14.567 18.1603 14.655C18.4933 14.799 18.8373 14.947 19.1373 15.141C19.9353 15.636 20.7713 16.259 21.6183 16.99C21.7893 17.143 21.9293 17.324 22.0673 17.507C22.2103 17.695 22.3613 17.852 22.5333 18.014C22.5953 18.072 22.6613 18.14 22.6613 18.225C22.6613 18.3 22.6063 18.366 22.5393 18.401C22.2403 18.559 21.8543 18.636 21.5263 18.721C21.2543 18.791 20.9973 18.819 20.7433 18.846C20.5133 18.871 20.2853 18.894 20.0473 18.957L19.9563 18.983C19.8003 19.028 19.6343 19.076 19.4663 19.117C19.7013 19.335 20.0773 19.551 20.3753 19.723C20.5563 19.828 20.7233 19.924 20.8513 20.012C21.4923 20.472 22.0323 20.997 22.4643 21.578L22.8813 21.974C23.0763 22.238 23.2363 22.595 23.3693 22.894C23.3893 22.939 23.4083 22.985 23.4073 23.034C23.4063 23.083 23.3773 23.134 23.3303 23.147C23.2903 23.158 23.2493 23.14 23.2123 23.122C23.0833 23.061 22.9593 22.995 22.8383 22.926ZM5.80928 5.745C5.71328 5.563 5.59528 5.392 5.45628 5.24C5.33128 5.103 5.16628 4.936 4.99028 4.868C5.11528 4.827 5.25028 4.799 5.37628 4.751C5.60628 4.693 5.82928 4.685 6.06428 4.668C6.19128 4.659 6.27928 4.686 6.39628 4.744C6.51128 4.801 6.61728 4.876 6.70628 4.969C6.88628 5.159 6.93228 5.368 6.93228 5.618C6.93228 5.826 6.90028 6.039 6.80928 6.228C6.71428 6.425 6.57228 6.569 6.41828 6.724C6.39328 6.749 6.36828 6.774 6.33928 6.794C6.29928 6.821 6.23528 6.901 6.18728 6.873C6.14828 6.85 6.15228 6.768 6.14428 6.73C6.07528 6.389 5.97228 6.054 5.80928 5.745Z" fill="#00678F"/>
</svg>
