<svg width="24" height="24" viewBox="0 0 24 24" fill="none" xmlns="http://www.w3.org/2000/svg">
<path d="M21.5 17.4099V6.58993C21.5 6.54393 21.475 6.50093 21.435 6.47693L12.065 1.06693C12.025 1.04393 11.975 1.04393 11.935 1.06693L2.565 6.47693C2.525 6.50093 2.5 6.54393 2.5 6.58993V17.4099C2.5 17.4559 2.525 17.4989 2.565 17.5229L11.935 22.9329C11.975 22.9559 12.025 22.9559 12.065 22.9329L21.435 17.5229C21.475 17.4989 21.5 17.4559 21.5 17.4099Z" fill="#119A48"/>
<path d="M15.763 7.24992C15.218 7.24992 14.776 7.69192 14.776 8.23692V13.3809L8.935 7.53892C8.652 7.25592 8.228 7.17192 7.859 7.32492C7.49 7.47792 7.25 7.83792 7.25 8.23692V15.7639C7.25 16.3089 7.692 16.7509 8.237 16.7509C8.782 16.7509 9.224 16.3089 9.224 15.7639V10.6199L15.065 16.4619C15.254 16.6509 15.506 16.7509 15.763 16.7509C15.89 16.7509 16.018 16.7259 16.14 16.6759C16.509 16.5229 16.749 16.1629 16.749 15.7639V8.23692C16.75 7.69092 16.308 7.24992 15.763 7.24992Z" fill="white"/>
</svg>
