<?xml version="1.0" encoding="UTF-8" standalone="no"?>
<!-- Created with Inkscape (http://www.inkscape.org/) -->
<svg xmlns:dc="http://purl.org/dc/elements/1.1/" xmlns:cc="http://creativecommons.org/ns#" xmlns:rdf="http://www.w3.org/1999/02/22-rdf-syntax-ns#" xmlns:svg="http://www.w3.org/2000/svg" xmlns="http://www.w3.org/2000/svg" xmlns:sodipodi="http://sodipodi.sourceforge.net/DTD/sodipodi-0.dtd" xmlns:inkscape="http://www.inkscape.org/namespaces/inkscape" width="680" height="580" id="svg3790" version="1.1" inkscape:version="0.48.0 r9654" sodipodi:docname="Inverted pyramid.svg">
  <defs id="defs3792"/>
  <sodipodi:namedview id="base" pagecolor="#ffffff" bordercolor="#666666" borderopacity="1.0" inkscape:pageopacity="0.0" inkscape:pageshadow="2" inkscape:zoom="0.61670912" inkscape:cx="350" inkscape:cy="331.59879" inkscape:document-units="px" inkscape:current-layer="text4334" showgrid="true" inkscape:window-width="1600" inkscape:window-height="838" inkscape:window-x="-8" inkscape:window-y="-8" inkscape:window-maximized="1">
    <inkscape:grid type="xygrid" id="grid3809" empspacing="5" visible="true" enabled="true" snapvisiblegridlinesonly="true"/>
  </sodipodi:namedview>
  <metadata id="metadata3795">
    <rdf:RDF>
      <cc:Work rdf:about="">
        <dc:format>image/svg+xml</dc:format>
        <dc:type rdf:resource="http://purl.org/dc/dcmitype/StillImage"/>
        <dc:title/>
      </cc:Work>
    </rdf:RDF>
  </metadata>
  <g inkscape:label="Layer 1" inkscape:groupmode="layer" id="layer1" transform="translate(0,-472.36218)">
    <path style="fill:none;stroke:#5681a3;stroke-width:5;stroke-linecap:butt;stroke-linejoin:miter;stroke-miterlimit:4;stroke-opacity:1;stroke-dasharray:none" d="M 20,492.36218 340,1032.3622 660,492.36218 z" id="path2999" inkscape:connector-curvature="0"/>
    <path style="fill:none;stroke:#5681a3;stroke-width:5;stroke-linecap:butt;stroke-linejoin:miter;stroke-miterlimit:4;stroke-opacity:1;stroke-dasharray:none" d="m 180,762.36218 320,0" id="path3773" inkscape:connector-curvature="0"/>
    <path style="fill:none;stroke:#5681a3;stroke-width:5;stroke-linecap:butt;stroke-linejoin:miter;stroke-miterlimit:4;stroke-opacity:1;stroke-dasharray:none" d="m 95.555556,620.25692 488.888884,0" id="path3775" inkscape:connector-curvature="0" sodipodi:nodetypes="cc"/>
    <g style="font-size:32px;font-style:normal;font-variant:normal;font-weight:bold;font-stretch:normal;line-height:125%;letter-spacing:0px;word-spacing:0px;fill:#000000;fill-opacity:1;stroke:none;font-family:DejaVu Sans;-inkscape-font-specification:DejaVu Sans Bold" id="text4330">
      <path d="m 142.9375,509.03406 7.65625,0 5.3125,12.48437 5.34375,-12.48437 7.64062,0 0,23.32812 -5.6875,0 0,-17.0625 -5.375,12.57813 -3.8125,0 -5.375,-12.57813 0,17.0625 -5.70312,0 z" style="" id="path3175"/>
      <path d="m 182.89062,518.44031 c -1.23959,1e-5 -2.1849,0.44532 -2.83593,1.33594 -0.65105,0.89063 -0.97657,2.17448 -0.97657,3.85156 0,1.67709 0.32552,2.96094 0.97657,3.85156 0.65103,0.89063 1.59634,1.33594 2.83593,1.33594 1.21874,0 2.15103,-0.44531 2.79688,-1.33594 0.64582,-0.89062 0.96874,-2.17447 0.96875,-3.85156 -1e-5,-1.67708 -0.32293,-2.96093 -0.96875,-3.85156 -0.64585,-0.89062 -1.57814,-1.33593 -2.79688,-1.33594 z m 0,-4 c 3.01041,2e-5 5.36197,0.81251 7.05469,2.4375 1.69269,1.62501 2.53904,3.87501 2.53906,6.75 -2e-5,2.875 -0.84637,5.125 -2.53906,6.75 -1.69272,1.625 -4.04428,2.4375 -7.05469,2.4375 -3.02084,0 -5.38281,-0.8125 -7.08593,-2.4375 -1.70313,-1.625 -2.55469,-3.875 -2.55469,-6.75 0,-2.87499 0.85156,-5.12499 2.55469,-6.75 1.70312,-1.62499 4.06509,-2.43748 7.08593,-2.4375 z" style="" id="path3177"/>
      <path d="m 210.23437,515.40906 0,4.25 c -1.19793,-0.49999 -2.35418,-0.87499 -3.46875,-1.125 -1.11459,-0.24999 -2.16667,-0.37499 -3.15625,-0.375 -1.0625,1e-5 -1.85157,0.13282 -2.36718,0.39844 -0.51563,0.26563 -0.77345,0.67449 -0.77344,1.22656 -1e-5,0.44793 0.19531,0.79168 0.58594,1.03125 0.39061,0.23959 1.09114,0.41668 2.10156,0.53125 l 0.98437,0.14062 c 2.86458,0.3646 4.79166,0.96355 5.78125,1.79688 0.98957,0.83334 1.48436,2.14063 1.48438,3.92187 -2e-5,1.86459 -0.68752,3.26563 -2.0625,4.20313 -1.37501,0.9375 -3.4271,1.40625 -6.15625,1.40625 -1.15626,0 -2.35157,-0.0911 -3.58594,-0.27344 -1.23438,-0.18229 -2.5026,-0.45573 -3.80469,-0.82031 l 0,-4.25 c 1.11459,0.54167 2.25781,0.94792 3.42969,1.21875 1.17187,0.27083 2.36197,0.40625 3.57031,0.40625 1.09374,0 1.91666,-0.15104 2.46875,-0.45313 0.55208,-0.30208 0.82812,-0.74999 0.82813,-1.34375 -1e-5,-0.49999 -0.19012,-0.87239 -0.57031,-1.11718 -0.38022,-0.24479 -1.13803,-0.43489 -2.27344,-0.57032 l -0.98438,-0.125 c -2.48958,-0.31249 -4.23437,-0.89061 -5.23437,-1.73437 -1,-0.84374 -1.5,-2.12499 -1.5,-3.84375 0,-1.85415 0.63541,-3.22915 1.90625,-4.125 1.27083,-0.89582 3.21874,-1.34373 5.84375,-1.34375 1.03124,2e-5 2.11457,0.0781 3.25,0.23437 1.1354,0.15627 2.36978,0.40106 3.70312,0.73438 z" style="" id="path3179"/>
      <path d="m 221.73437,509.89343 0,4.96875 5.76563,0 0,4 -5.76563,0 0,7.42188 c 0,0.8125 0.16145,1.36198 0.48438,1.64844 0.32291,0.28646 0.96353,0.42969 1.92187,0.42968 l 2.875,0 0,4 -4.79687,0 c -2.20834,0 -3.77344,-0.46093 -4.69531,-1.38281 -0.92188,-0.92187 -1.38282,-2.48698 -1.38282,-4.69531 l 0,-7.42188 -2.78125,0 0,-4 2.78125,0 0,-4.96875 z" style="" id="path3181"/>
      <path d="m 242.3125,509.03406 6.71875,0 8.48437,16 0,-16 5.70313,0 0,23.32812 -6.71875,0 -8.48438,-16 0,16 -5.70312,0 z" style="" id="path3183"/>
      <path d="m 286.34375,523.56531 0,1.59375 -13.07813,0 c 0.13541,1.3125 0.60937,2.29688 1.42188,2.95312 0.81249,0.65626 1.94791,0.98438 3.40625,0.98438 1.17707,0 2.3828,-0.17448 3.61719,-0.52344 1.23436,-0.34895 2.50258,-0.8776 3.80468,-1.58594 l 0,4.3125 c -1.32293,0.5 -2.64585,0.87761 -3.96875,1.13282 -1.32293,0.2552 -2.64584,0.38281 -3.96875,0.38281 -3.16667,0 -5.6276,-0.80469 -7.38281,-2.41406 -1.75521,-1.60938 -2.63281,-3.86719 -2.63281,-6.77344 0,-2.85416 0.86198,-5.09895 2.58594,-6.73438 1.72395,-1.6354 4.09634,-2.4531 7.11718,-2.45312 2.74999,2e-5 4.95051,0.82814 6.60157,2.48437 1.65102,1.65627 2.47654,3.86981 2.47656,6.64063 z m -5.75,-1.85938 c -10e-6,-1.06249 -0.30991,-1.91926 -0.92969,-2.57031 -0.6198,-0.65103 -1.4297,-0.97655 -2.42969,-0.97656 -1.08334,1e-5 -1.96355,0.3047 -2.64062,0.91406 -0.67709,0.60939 -1.09897,1.48699 -1.26563,2.63281 z" style="" id="path3185"/>
      <path d="m 289,514.86218 5.4375,0 2.9375,12.0625 2.95312,-12.0625 4.67188,0 2.9375,11.9375 2.95312,-11.9375 5.4375,0 -4.60937,17.5 -6.10938,0 -2.95312,-12.03125 -2.9375,12.03125 -6.10938,0 z" style="" id="path3187"/>
      <path d="m 333.79687,515.40906 0,4.25 c -1.19793,-0.49999 -2.35418,-0.87499 -3.46875,-1.125 -1.11459,-0.24999 -2.16667,-0.37499 -3.15625,-0.375 -1.0625,1e-5 -1.85157,0.13282 -2.36718,0.39844 -0.51563,0.26563 -0.77345,0.67449 -0.77344,1.22656 -10e-6,0.44793 0.19531,0.79168 0.58594,1.03125 0.39061,0.23959 1.09114,0.41668 2.10156,0.53125 l 0.98437,0.14062 c 2.86458,0.3646 4.79166,0.96355 5.78125,1.79688 0.98957,0.83334 1.48436,2.14063 1.48438,3.92187 -2e-5,1.86459 -0.68752,3.26563 -2.0625,4.20313 -1.37501,0.9375 -3.4271,1.40625 -6.15625,1.40625 -1.15626,0 -2.35157,-0.0911 -3.58594,-0.27344 -1.23438,-0.18229 -2.5026,-0.45573 -3.80469,-0.82031 l 0,-4.25 c 1.11459,0.54167 2.25781,0.94792 3.42969,1.21875 1.17187,0.27083 2.36197,0.40625 3.57031,0.40625 1.09374,0 1.91666,-0.15104 2.46875,-0.45313 0.55208,-0.30208 0.82812,-0.74999 0.82813,-1.34375 -10e-6,-0.49999 -0.19012,-0.87239 -0.57031,-1.11718 -0.38022,-0.24479 -1.13803,-0.43489 -2.27344,-0.57032 l -0.98438,-0.125 c -2.48958,-0.31249 -4.23437,-0.89061 -5.23437,-1.73437 -1,-0.84374 -1.5,-2.12499 -1.5,-3.84375 0,-1.85415 0.63541,-3.22915 1.90625,-4.125 1.27083,-0.89582 3.21874,-1.34373 5.84375,-1.34375 1.03124,2e-5 2.11457,0.0781 3.25,0.23437 1.1354,0.15627 2.36978,0.40106 3.70312,0.73438 z" style="" id="path3189"/>
      <path d="m 337.625,514.86218 5.4375,0 2.9375,12.0625 2.95312,-12.0625 4.67188,0 2.9375,11.9375 2.95312,-11.9375 5.4375,0 -4.60937,17.5 -6.10938,0 -2.95312,-12.03125 -2.9375,12.03125 -6.10938,0 z" style="" id="path3191"/>
      <path d="m 377.07812,518.44031 c -1.23959,1e-5 -2.1849,0.44532 -2.83593,1.33594 -0.65105,0.89063 -0.97657,2.17448 -0.97657,3.85156 0,1.67709 0.32552,2.96094 0.97657,3.85156 0.65103,0.89063 1.59634,1.33594 2.83593,1.33594 1.21874,0 2.15103,-0.44531 2.79688,-1.33594 0.64582,-0.89062 0.96874,-2.17447 0.96875,-3.85156 -10e-6,-1.67708 -0.32293,-2.96093 -0.96875,-3.85156 -0.64585,-0.89062 -1.57814,-1.33593 -2.79688,-1.33594 z m 0,-4 c 3.01041,2e-5 5.36197,0.81251 7.05469,2.4375 1.69269,1.62501 2.53904,3.87501 2.53906,6.75 -2e-5,2.875 -0.84637,5.125 -2.53906,6.75 -1.69272,1.625 -4.04428,2.4375 -7.05469,2.4375 -3.02084,0 -5.38281,-0.8125 -7.08593,-2.4375 -1.70313,-1.625 -2.55469,-3.875 -2.55469,-6.75 0,-2.87499 0.85156,-5.12499 2.55469,-6.75 1.70312,-1.62499 4.06509,-2.43748 7.08593,-2.4375 z" style="" id="path3193"/>
      <path d="m 403.75,519.62781 c -0.4896,-0.22916 -0.97658,-0.39843 -1.46094,-0.50781 -0.48439,-0.10937 -0.97136,-0.16405 -1.46094,-0.16407 -1.43751,2e-5 -2.54428,0.46095 -3.32031,1.38282 -0.77605,0.92188 -1.16407,2.24219 -1.16406,3.96093 l 0,8.0625 -5.59375,0 0,-17.5 5.59375,0 0,2.875 c 0.71874,-1.14581 1.54426,-1.98175 2.47656,-2.50781 0.93228,-0.52602 2.04947,-0.78904 3.35156,-0.78906 0.18749,2e-5 0.39062,0.008 0.60938,0.0234 0.21874,0.0156 0.53644,0.0495 0.95312,0.10156 z" style="" id="path3195"/>
      <path d="m 412.67187,509.89343 0,4.96875 5.76563,0 0,4 -5.76563,0 0,7.42188 c 0,0.8125 0.16145,1.36198 0.48438,1.64844 0.32291,0.28646 0.96353,0.42969 1.92187,0.42968 l 2.875,0 0,4 -4.79687,0 c -2.20834,0 -3.77344,-0.46093 -4.69531,-1.38281 -0.92188,-0.92187 -1.38282,-2.48698 -1.38282,-4.69531 l 0,-7.42188 -2.78125,0 0,-4 2.78125,0 0,-4.96875 z" style="" id="path3197"/>
      <path d="m 439.46875,521.70593 0,10.65625 -5.625,0 0,-1.73437 0,-6.39063 c -10e-6,-1.53124 -0.0339,-2.58332 -0.10156,-3.15625 -0.0677,-0.5729 -0.18491,-0.99478 -0.35157,-1.26562 -0.21876,-0.36457 -0.51563,-0.64843 -0.89062,-0.85156 -0.37501,-0.20312 -0.8021,-0.30468 -1.28125,-0.30469 -1.16668,1e-5 -2.08334,0.45053 -2.75,1.35156 -0.66668,0.90105 -1.00001,2.14845 -1,3.74219 l 0,8.60937 -5.59375,0 0,-24.3125 5.59375,0 0,9.375 c 0.84374,-1.02081 1.73957,-1.77342 2.6875,-2.25781 0.9479,-0.48436 1.99478,-0.72654 3.14062,-0.72656 2.02082,2e-5 3.55467,0.61981 4.60157,1.85937 1.04685,1.2396 1.57029,3.04168 1.57031,5.40625 z" style="" id="path3199"/>
      <path d="m 442.39062,514.86218 5.59375,0 4.70313,11.875 4,-11.875 5.59375,0 -7.35938,19.15625 c -0.73959,1.94792 -1.60157,3.30989 -2.58593,4.08594 -0.98439,0.77604 -2.28386,1.16406 -3.89844,1.16406 l -3.23438,0 0,-3.67187 1.75,0 c 0.94792,-10e-6 1.63802,-0.15105 2.07032,-0.45313 0.43228,-0.30208 0.76822,-0.84375 1.00781,-1.625 l 0.15625,-0.48437 z" style="" id="path3201"/>
      <path d="m 476.9375,509.03406 6.01562,0 0,23.32812 -6.01562,0 z" style="" id="path3203"/>
      <path d="m 506.21875,521.70593 0,10.65625 -5.625,0 0,-1.73437 0,-6.42188 c -10e-6,-1.5104 -0.0339,-2.55207 -0.10156,-3.125 -0.0677,-0.5729 -0.18491,-0.99478 -0.35157,-1.26562 -0.21876,-0.36457 -0.51563,-0.64843 -0.89062,-0.85156 -0.37501,-0.20312 -0.8021,-0.30468 -1.28125,-0.30469 -1.16668,1e-5 -2.08334,0.45053 -2.75,1.35156 -0.66668,0.90105 -1.00001,2.14845 -1,3.74219 l 0,8.60937 -5.59375,0 0,-17.5 5.59375,0 0,2.5625 c 0.84374,-1.02081 1.73957,-1.77342 2.6875,-2.25781 0.9479,-0.48436 1.99478,-0.72654 3.14062,-0.72656 2.02082,2e-5 3.55467,0.61981 4.60157,1.85937 1.04685,1.2396 1.57029,3.04168 1.57031,5.40625 z" style="" id="path3205"/>
      <path d="m 522.95312,508.04968 0,3.67188 -3.09375,0 c -0.79167,2e-5 -1.34375,0.14325 -1.65625,0.42969 -0.3125,0.28647 -0.46875,0.78387 -0.46875,1.49218 l 0,1.21875 4.78125,0 0,4 -4.78125,0 0,13.5 -5.59375,0 0,-13.5 -2.78125,0 0,-4 2.78125,0 0,-1.21875 c 0,-1.90623 0.53125,-3.31508 1.59375,-4.22656 1.0625,-0.91143 2.70833,-1.36716 4.9375,-1.36719 z" style="" id="path3207"/>
      <path d="m 533.70312,518.44031 c -1.23959,1e-5 -2.1849,0.44532 -2.83593,1.33594 -0.65105,0.89063 -0.97657,2.17448 -0.97657,3.85156 0,1.67709 0.32552,2.96094 0.97657,3.85156 0.65103,0.89063 1.59634,1.33594 2.83593,1.33594 1.21874,0 2.15103,-0.44531 2.79688,-1.33594 0.64582,-0.89062 0.96874,-2.17447 0.96875,-3.85156 -10e-6,-1.67708 -0.32293,-2.96093 -0.96875,-3.85156 -0.64585,-0.89062 -1.57814,-1.33593 -2.79688,-1.33594 z m 0,-4 c 3.01041,2e-5 5.36197,0.81251 7.05469,2.4375 1.69269,1.62501 2.53904,3.87501 2.53906,6.75 -2e-5,2.875 -0.84637,5.125 -2.53906,6.75 -1.69272,1.625 -4.04428,2.4375 -7.05469,2.4375 -3.02084,0 -5.38281,-0.8125 -7.08593,-2.4375 -1.70313,-1.625 -2.55469,-3.875 -2.55469,-6.75 0,-2.87499 0.85156,-5.12499 2.55469,-6.75 1.70312,-1.62499 4.06509,-2.43748 7.08593,-2.4375 z" style="" id="path3209"/>
    </g>
    <g style="font-size:22px;font-style:normal;font-variant:normal;font-weight:bold;font-stretch:normal;line-height:125%;letter-spacing:0px;word-spacing:0px;fill:#000000;fill-opacity:1;stroke:none;font-family:DejaVu Sans;-inkscape-font-specification:DejaVu Sans Bold" id="text4334">
      <path d="m 100.65527,556.3241 3.96387,0 2.77149,11.65527 2.75,-11.65527 3.98535,0 2.75,11.65527 2.77148,-11.65527 3.93164,0 -3.78125,16.03808 -4.76953,0 -2.91113,-12.19238 -2.87891,12.19238 -4.76953,0 z" style="" id="path3118"/>
      <path d="m 138.2207,565.03601 0,7.32617 -3.86718,0 0,-1.19238 0,-4.39355 c -1e-5,-1.05273 -0.0233,-1.77604 -0.0698,-2.16993 -0.0466,-0.39387 -0.12712,-0.68391 -0.2417,-0.87011 -0.1504,-0.25065 -0.3545,-0.4458 -0.6123,-0.58545 -0.25782,-0.13964 -0.55144,-0.20947 -0.88086,-0.20948 -0.80209,10e-6 -1.4323,0.30975 -1.89063,0.9292 -0.45834,0.61948 -0.6875,1.47706 -0.6875,2.57276 l 0,5.91894 -3.8457,0 0,-16.71484 3.8457,0 0,6.44531 c 0.58007,-0.70181 1.19596,-1.21923 1.84766,-1.55224 0.65168,-0.333 1.37141,-0.4995 2.15918,-0.49952 1.38931,2e-5 2.44383,0.42612 3.16357,1.27832 0.71972,0.85223 1.07958,2.09116 1.07959,3.7168 z" style="" id="path3120"/>
      <path d="m 147.53418,562.79089 c -0.85222,10e-6 -1.50212,0.30617 -1.94971,0.91846 -0.44759,0.61231 -0.67139,1.49496 -0.67138,2.64795 -1e-5,1.153 0.22379,2.03565 0.67138,2.64795 0.44759,0.61231 1.09749,0.91846 1.94971,0.91846 0.83788,0 1.47883,-0.30615 1.92285,-0.91846 0.444,-0.6123 0.66601,-1.49495 0.66602,-2.64795 -1e-5,-1.15299 -0.22202,-2.03564 -0.66602,-2.64795 -0.44402,-0.61229 -1.08497,-0.91845 -1.92285,-0.91846 z m 0,-2.75 c 2.06965,2e-5 3.68635,0.55861 4.8501,1.67578 1.16372,1.1172 1.74559,2.66408 1.7456,4.64063 -1e-5,1.97657 -0.58188,3.52344 -1.7456,4.64062 -1.16375,1.11719 -2.78045,1.67579 -4.8501,1.67579 -2.07683,0 -3.70069,-0.5586 -4.87158,-1.67579 -1.1709,-1.11718 -1.75635,-2.66405 -1.75635,-4.64062 0,-1.97655 0.58545,-3.52343 1.75635,-4.64063 1.17089,-1.11717 2.79475,-1.67576 4.87158,-1.67578 z" style="" id="path3122"/>
      <path d="m 162.70215,566.94812 -3.87793,0 0,-0.52637 c 0,-0.58723 0.11816,-1.10823 0.35449,-1.56299 0.23632,-0.45474 0.73405,-1.03303 1.49316,-1.73486 l 0.6875,-0.62305 c 0.4082,-0.37238 0.70719,-0.72329 0.89698,-1.05273 0.18977,-0.32942 0.28466,-0.65884 0.28467,-0.98828 -1e-5,-0.50129 -0.17189,-0.89338 -0.51563,-1.17627 -0.34376,-0.28286 -0.82357,-0.4243 -1.43945,-0.42432 -0.58009,2e-5 -1.20671,0.11997 -1.87989,0.35987 -0.67318,0.23992 -1.375,0.5962 -2.10546,1.06884 l 0,-3.37304 c 0.86653,-0.30077 1.65787,-0.52277 2.37402,-0.66602 0.71614,-0.14321 1.40722,-0.21483 2.07324,-0.21484 1.74739,1e-5 3.07942,0.3563 3.9961,1.06885 0.91665,0.71257 1.37498,1.75278 1.375,3.1206 -2e-5,0.70184 -0.13966,1.33025 -0.41895,1.88525 -0.27931,0.55503 -0.75554,1.15122 -1.42871,1.78858 l -0.6875,0.6123 c -0.48699,0.44402 -0.80567,0.8003 -0.95606,1.06885 -0.15039,0.26856 -0.22559,0.56397 -0.22558,0.88623 z m -3.87793,1.58984 3.87793,0 0,3.82422 -3.87793,0 z" style="" id="path3124"/>
      <path d="m 176.15137,556.3241 3.96386,0 2.77149,11.65527 2.75,-11.65527 3.98535,0 2.75,11.65527 2.77148,-11.65527 3.93165,0 -3.78125,16.03808 -4.76954,0 -2.91113,-12.19238 -2.87891,12.19238 -4.76953,0 z" style="" id="path3126"/>
      <path d="m 213.7168,565.03601 0,7.32617 -3.86719,0 0,-1.19238 0,-4.39355 c -1e-5,-1.05273 -0.0233,-1.77604 -0.0698,-2.16993 -0.0466,-0.39387 -0.12713,-0.68391 -0.2417,-0.87011 -0.1504,-0.25065 -0.35451,-0.4458 -0.61231,-0.58545 -0.25782,-0.13964 -0.55144,-0.20947 -0.88086,-0.20948 -0.80209,10e-6 -1.4323,0.30975 -1.89062,0.9292 -0.45834,0.61948 -0.68751,1.47706 -0.6875,2.57276 l 0,5.91894 -3.84571,0 0,-16.71484 3.84571,0 0,6.44531 c 0.58007,-0.70181 1.19595,-1.21923 1.84765,-1.55224 0.65169,-0.333 1.37141,-0.4995 2.15918,-0.49952 1.38931,2e-5 2.44384,0.42612 3.16358,1.27832 0.71971,0.85223 1.07957,2.09116 1.07959,3.7168 z" style="" id="path3128"/>
      <path d="m 222.69727,566.94812 c -0.80209,10e-6 -1.40545,0.13607 -1.81006,0.4082 -0.40463,0.27214 -0.60694,0.67318 -0.60694,1.20313 0,0.48698 0.16292,0.86833 0.48877,1.14404 0.32584,0.27572 0.77881,0.41358 1.35889,0.41358 0.7233,0 1.33202,-0.2596 1.82617,-0.77881 0.49413,-0.51921 0.7412,-1.16911 0.74121,-1.94971 l 0,-0.44043 z m 5.87597,-1.4502 0,6.86426 -3.87793,0 0,-1.7832 c -0.51563,0.73047 -1.09571,1.26221 -1.74023,1.59521 -0.64454,0.33301 -1.42872,0.49952 -2.35254,0.49952 -1.2461,0 -2.25765,-0.36345 -3.03467,-1.09034 -0.77702,-0.72688 -1.16553,-1.6704 -1.16553,-2.83056 0,-1.4108 0.48519,-2.44563 1.45557,-3.10449 0.97037,-0.65885 2.49397,-0.98828 4.5708,-0.98829 l 2.2666,0 0,-0.30078 c -1e-5,-0.60871 -0.23992,-1.05451 -0.71972,-1.3374 -0.47983,-0.28287 -1.2282,-0.42431 -2.24512,-0.42432 -0.82357,10e-6 -1.58985,0.0824 -2.29883,0.24707 -0.70899,0.16473 -1.36784,0.4118 -1.97656,0.74122 l 0,-2.93262 c 0.82356,-0.20051 1.65071,-0.35269 2.48144,-0.45654 0.83073,-0.10383 1.66146,-0.15575 2.49219,-0.15577 2.16991,2e-5 3.73648,0.42791 4.69971,1.28369 0.9632,0.85581 1.44481,2.24692 1.44482,4.17334 z" style="" id="path3130"/>
      <path d="m 236.37207,556.91492 0,3.41601 3.96387,0 0,2.75 -3.96387,0 0,5.10254 c -1e-5,0.5586 0.111,0.93637 0.33301,1.1333 0.222,0.19695 0.66243,0.29542 1.32129,0.29541 l 1.97656,0 0,2.75 -3.29785,0 c -1.51824,0 -2.59424,-0.31689 -3.22803,-0.95068 -0.63379,-0.63379 -0.95069,-1.7098 -0.95068,-3.22803 l 0,-5.10254 -1.91211,0 0,-2.75 1.91211,0 0,-3.41601 z" style="" id="path3132"/>
      <path d="m 248.46777,566.94812 -3.87793,0 0,-0.52637 c 0,-0.58723 0.11816,-1.10823 0.3545,-1.56299 0.23632,-0.45474 0.73404,-1.03303 1.49316,-1.73486 l 0.6875,-0.62305 c 0.4082,-0.37238 0.70719,-0.72329 0.89697,-1.05273 0.18977,-0.32942 0.28466,-0.65884 0.28467,-0.98828 -10e-6,-0.50129 -0.17188,-0.89338 -0.51562,-1.17627 -0.34376,-0.28286 -0.82358,-0.4243 -1.43946,-0.42432 -0.58008,2e-5 -1.20671,0.11997 -1.87988,0.35987 -0.67318,0.23992 -1.375,0.5962 -2.10547,1.06884 l 0,-3.37304 c 0.86654,-0.30077 1.65788,-0.52277 2.37402,-0.66602 0.71615,-0.14321 1.40723,-0.21483 2.07325,-0.21484 1.74738,1e-5 3.07941,0.3563 3.99609,1.06885 0.91666,0.71257 1.37499,1.75278 1.375,3.1206 -1e-5,0.70184 -0.13966,1.33025 -0.41895,1.88525 -0.2793,0.55503 -0.75554,1.15122 -1.42871,1.78858 l -0.6875,0.6123 c -0.48698,0.44402 -0.80567,0.8003 -0.95605,1.06885 -0.1504,0.26856 -0.22559,0.56397 -0.22559,0.88623 z m -3.87793,1.58984 3.87793,0 0,3.82422 -3.87793,0 z" style="" id="path3134"/>
      <path d="m 261.91699,556.3241 3.96387,0 2.77148,11.65527 2.75,-11.65527 3.98536,0 2.75,11.65527 2.77148,-11.65527 3.93164,0 -3.78125,16.03808 -4.76953,0 -2.91113,-12.19238 -2.87891,12.19238 -4.76953,0 z" style="" id="path3136"/>
      <path d="m 299.48242,565.03601 0,7.32617 -3.86719,0 0,-1.19238 0,-4.39355 c -10e-6,-1.05273 -0.0233,-1.77604 -0.0698,-2.16993 -0.0466,-0.39387 -0.12713,-0.68391 -0.2417,-0.87011 -0.1504,-0.25065 -0.3545,-0.4458 -0.6123,-0.58545 -0.25783,-0.13964 -0.55144,-0.20947 -0.88086,-0.20948 -0.80209,10e-6 -1.4323,0.30975 -1.89063,0.9292 -0.45834,0.61948 -0.6875,1.47706 -0.6875,2.57276 l 0,5.91894 -3.8457,0 0,-16.71484 3.8457,0 0,6.44531 c 0.58007,-0.70181 1.19596,-1.21923 1.84766,-1.55224 0.65168,-0.333 1.37141,-0.4995 2.15918,-0.49952 1.38931,2e-5 2.44383,0.42612 3.16357,1.27832 0.71972,0.85223 1.07958,2.09116 1.07959,3.7168 z" style="" id="path3138"/>
      <path d="m 315.08008,566.31433 0,1.0957 -8.99121,0 c 0.0931,0.90235 0.41894,1.57911 0.97754,2.03028 0.55858,0.45117 1.33918,0.67676 2.34179,0.67676 0.80924,0 1.63818,-0.11996 2.48682,-0.35987 0.84862,-0.2399 1.72053,-0.60335 2.61572,-1.09033 l 0,2.96484 c -0.90952,0.34375 -1.81902,0.60336 -2.72851,0.77881 -0.90952,0.17546 -1.81902,0.26319 -2.72852,0.26319 -2.17709,0 -3.86898,-0.55323 -5.07568,-1.65967 -1.20671,-1.10644 -1.81006,-2.65869 -1.81006,-4.65674 0,-1.96223 0.59261,-3.50552 1.77783,-4.62988 1.18522,-1.12434 2.81624,-1.68651 4.89307,-1.68653 1.89061,2e-5 3.40347,0.56935 4.53857,1.70801 1.13508,1.13868 1.70262,2.66049 1.70264,4.56543 z m -3.95313,-1.27832 c -1e-5,-0.73046 -0.21306,-1.31949 -0.63916,-1.76709 -0.42611,-0.44758 -0.98292,-0.67138 -1.67041,-0.67139 -0.7448,10e-6 -1.34994,0.20949 -1.81543,0.62842 -0.4655,0.41896 -0.75554,1.02231 -0.87011,1.81006 z" style="" id="path3140"/>
      <path d="m 330.07617,565.03601 0,7.32617 -3.86719,0 0,-1.19238 0,-4.41504 c -10e-6,-1.0384 -0.0233,-1.75455 -0.0698,-2.14844 -0.0466,-0.39387 -0.12713,-0.68391 -0.2417,-0.87011 -0.1504,-0.25065 -0.3545,-0.4458 -0.6123,-0.58545 -0.25783,-0.13964 -0.55144,-0.20947 -0.88086,-0.20948 -0.80209,10e-6 -1.4323,0.30975 -1.89063,0.9292 -0.45834,0.61948 -0.6875,1.47706 -0.6875,2.57276 l 0,5.91894 -3.8457,0 0,-12.03125 3.8457,0 0,1.76172 c 0.58007,-0.70181 1.19596,-1.21923 1.84766,-1.55224 0.65168,-0.333 1.37141,-0.4995 2.15918,-0.49952 1.38931,2e-5 2.44383,0.42612 3.16357,1.27832 0.71972,0.85223 1.07958,2.09116 1.07959,3.7168 z" style="" id="path3142"/>
      <path d="m 339.43262,566.94812 -3.87793,0 0,-0.52637 c -10e-6,-0.58723 0.11816,-1.10823 0.35449,-1.56299 0.23632,-0.45474 0.73404,-1.03303 1.49316,-1.73486 l 0.6875,-0.62305 c 0.4082,-0.37238 0.70719,-0.72329 0.89698,-1.05273 0.18977,-0.32942 0.28466,-0.65884 0.28466,-0.98828 0,-0.50129 -0.17188,-0.89338 -0.51562,-1.17627 -0.34376,-0.28286 -0.82357,-0.4243 -1.43945,-0.42432 -0.58009,2e-5 -1.20671,0.11997 -1.87989,0.35987 -0.67318,0.23992 -1.375,0.5962 -2.10547,1.06884 l 0,-3.37304 c 0.86654,-0.30077 1.65788,-0.52277 2.37403,-0.66602 0.71614,-0.14321 1.40722,-0.21483 2.07324,-0.21484 1.74739,1e-5 3.07942,0.3563 3.99609,1.06885 0.91666,0.71257 1.37499,1.75278 1.375,3.1206 -10e-6,0.70184 -0.13966,1.33025 -0.41894,1.88525 -0.27931,0.55503 -0.75555,1.15122 -1.42871,1.78858 l -0.6875,0.6123 c -0.48699,0.44402 -0.80567,0.8003 -0.95606,1.06885 -0.1504,0.26856 -0.22559,0.56397 -0.22558,0.88623 z m -3.87793,1.58984 3.87793,0 0,3.82422 -3.87793,0 z" style="" id="path3144"/>
      <path d="m 352.88184,556.3241 3.96386,0 2.77149,11.65527 2.75,-11.65527 3.98535,0 2.75,11.65527 2.77148,-11.65527 3.93164,0 -3.78125,16.03808 -4.76953,0 -2.91113,-12.19238 -2.87891,12.19238 -4.76953,0 z" style="" id="path3146"/>
      <path d="m 390.44727,565.03601 0,7.32617 -3.86719,0 0,-1.19238 0,-4.39355 c -1e-5,-1.05273 -0.0233,-1.77604 -0.0698,-2.16993 -0.0466,-0.39387 -0.12712,-0.68391 -0.2417,-0.87011 -0.1504,-0.25065 -0.3545,-0.4458 -0.6123,-0.58545 -0.25782,-0.13964 -0.55144,-0.20947 -0.88086,-0.20948 -0.80209,10e-6 -1.4323,0.30975 -1.89062,0.9292 -0.45834,0.61948 -0.68751,1.47706 -0.6875,2.57276 l 0,5.91894 -3.84571,0 0,-16.71484 3.84571,0 0,6.44531 c 0.58007,-0.70181 1.19595,-1.21923 1.84765,-1.55224 0.65169,-0.333 1.37141,-0.4995 2.15918,-0.49952 1.38931,2e-5 2.44384,0.42612 3.16358,1.27832 0.71971,0.85223 1.07957,2.09116 1.07959,3.7168 z" style="" id="path3148"/>
      <path d="m 406.04492,566.31433 0,1.0957 -8.99121,0 c 0.0931,0.90235 0.41894,1.57911 0.97754,2.03028 0.55859,0.45117 1.33919,0.67676 2.3418,0.67676 0.80923,0 1.63817,-0.11996 2.48681,-0.35987 0.84862,-0.2399 1.72053,-0.60335 2.61573,-1.09033 l 0,2.96484 c -0.90952,0.34375 -1.81903,0.60336 -2.72852,0.77881 -0.90951,0.17546 -1.81902,0.26319 -2.72852,0.26319 -2.17708,0 -3.86898,-0.55323 -5.07568,-1.65967 -1.20671,-1.10644 -1.81006,-2.65869 -1.81006,-4.65674 0,-1.96223 0.59261,-3.50552 1.77783,-4.62988 1.18522,-1.12434 2.81624,-1.68651 4.89307,-1.68653 1.89062,2e-5 3.40347,0.56935 4.53858,1.70801 1.13507,1.13868 1.70262,2.66049 1.70263,4.56543 z m -3.95312,-1.27832 c -10e-6,-0.73046 -0.21307,-1.31949 -0.63916,-1.76709 -0.42612,-0.44758 -0.98292,-0.67138 -1.67041,-0.67139 -0.7448,10e-6 -1.34994,0.20949 -1.81543,0.62842 -0.4655,0.41896 -0.75554,1.02231 -0.87012,1.81006 z" style="" id="path3150"/>
      <path d="m 417.88281,563.6073 c -0.3366,-0.15754 -0.67139,-0.27392 -1.00439,-0.34912 -0.33302,-0.0752 -0.66782,-0.11279 -1.0044,-0.11279 -0.98829,0 -1.74919,0.3169 -2.28271,0.95068 -0.53354,0.6338 -0.8003,1.54151 -0.80029,2.72314 l 0,5.54297 -3.84571,0 0,-12.03125 3.84571,0 0,1.97657 c 0.49413,-0.78775 1.06168,-1.36246 1.70263,-1.72413 0.64094,-0.36164 1.40901,-0.54246 2.3042,-0.54248 0.1289,2e-5 0.26855,0.005 0.41895,0.0161 0.15038,0.0108 0.3688,0.034 0.65527,0.0698 z" style="" id="path3152"/>
      <path d="m 431.82617,566.31433 0,1.0957 -8.99121,0 c 0.0931,0.90235 0.41894,1.57911 0.97754,2.03028 0.55859,0.45117 1.33919,0.67676 2.3418,0.67676 0.80923,0 1.63817,-0.11996 2.48681,-0.35987 0.84862,-0.2399 1.72053,-0.60335 2.61573,-1.09033 l 0,2.96484 c -0.90952,0.34375 -1.81903,0.60336 -2.72852,0.77881 -0.90951,0.17546 -1.81902,0.26319 -2.72852,0.26319 -2.17708,0 -3.86898,-0.55323 -5.07568,-1.65967 -1.20671,-1.10644 -1.81006,-2.65869 -1.81006,-4.65674 0,-1.96223 0.59261,-3.50552 1.77783,-4.62988 1.18522,-1.12434 2.81624,-1.68651 4.89307,-1.68653 1.89062,2e-5 3.40347,0.56935 4.53858,1.70801 1.13507,1.13868 1.70262,2.66049 1.70263,4.56543 z m -3.95312,-1.27832 c -10e-6,-0.73046 -0.21307,-1.31949 -0.63916,-1.76709 -0.42612,-0.44758 -0.98292,-0.67138 -1.67041,-0.67139 -0.7448,10e-6 -1.34994,0.20949 -1.81543,0.62842 -0.4655,0.41896 -0.75554,1.02231 -0.87012,1.81006 z" style="" id="path3154"/>
      <path d="m 440.49512,566.94812 -3.87793,0 0,-0.52637 c -10e-6,-0.58723 0.11816,-1.10823 0.35449,-1.56299 0.23632,-0.45474 0.73404,-1.03303 1.49316,-1.73486 l 0.6875,-0.62305 c 0.4082,-0.37238 0.70719,-0.72329 0.89698,-1.05273 0.18977,-0.32942 0.28466,-0.65884 0.28466,-0.98828 0,-0.50129 -0.17188,-0.89338 -0.51562,-1.17627 -0.34376,-0.28286 -0.82357,-0.4243 -1.43945,-0.42432 -0.58009,2e-5 -1.20671,0.11997 -1.87989,0.35987 -0.67318,0.23992 -1.375,0.5962 -2.10547,1.06884 l 0,-3.37304 c 0.86654,-0.30077 1.65788,-0.52277 2.37403,-0.66602 0.71614,-0.14321 1.40722,-0.21483 2.07324,-0.21484 1.74739,1e-5 3.07942,0.3563 3.99609,1.06885 0.91666,0.71257 1.37499,1.75278 1.375,3.1206 -10e-6,0.70184 -0.13966,1.33025 -0.41894,1.88525 -0.27931,0.55503 -0.75555,1.15122 -1.42871,1.78858 l -0.6875,0.6123 c -0.48699,0.44402 -0.80567,0.8003 -0.95606,1.06885 -0.1504,0.26856 -0.22559,0.56397 -0.22558,0.88623 z m -3.87793,1.58984 3.87793,0 0,3.82422 -3.87793,0 z" style="" id="path3156"/>
      <path d="m 453.94434,556.3241 3.96386,0 2.77149,11.65527 2.75,-11.65527 3.98535,0 2.75,11.65527 2.77148,-11.65527 3.93164,0 -3.78125,16.03808 -4.76953,0 -2.91113,-12.19238 -2.87891,12.19238 -4.76953,0 z" style="" id="path3158"/>
      <path d="m 491.50977,565.03601 0,7.32617 -3.86719,0 0,-1.19238 0,-4.39355 c -1e-5,-1.05273 -0.0233,-1.77604 -0.0698,-2.16993 -0.0466,-0.39387 -0.12712,-0.68391 -0.2417,-0.87011 -0.1504,-0.25065 -0.3545,-0.4458 -0.6123,-0.58545 -0.25782,-0.13964 -0.55144,-0.20947 -0.88086,-0.20948 -0.80209,10e-6 -1.4323,0.30975 -1.89062,0.9292 -0.45834,0.61948 -0.68751,1.47706 -0.6875,2.57276 l 0,5.91894 -3.84571,0 0,-16.71484 3.84571,0 0,6.44531 c 0.58007,-0.70181 1.19595,-1.21923 1.84765,-1.55224 0.65169,-0.333 1.37141,-0.4995 2.15918,-0.49952 1.38931,2e-5 2.44384,0.42612 3.16358,1.27832 0.71971,0.85223 1.07957,2.09116 1.07959,3.7168 z" style="" id="path3160"/>
      <path d="m 493.51855,560.33093 3.84571,0 3.2334,8.16407 2.75,-8.16407 3.8457,0 -5.05957,13.16992 c -0.50847,1.33919 -1.10108,2.27555 -1.77783,2.80909 -0.67677,0.53352 -1.57016,0.80028 -2.68018,0.80029 l -2.22363,0 0,-2.52441 1.20312,0 c 0.65169,-10e-6 1.12614,-0.10385 1.42334,-0.31153 0.2972,-0.20768 0.52816,-0.58008 0.69287,-1.11719 l 0.10743,-0.333 z" style="" id="path3162"/>
      <path d="m 515.21777,566.94812 -3.87793,0 0,-0.52637 c 0,-0.58723 0.11816,-1.10823 0.3545,-1.56299 0.23632,-0.45474 0.73404,-1.03303 1.49316,-1.73486 l 0.6875,-0.62305 c 0.4082,-0.37238 0.70719,-0.72329 0.89697,-1.05273 0.18977,-0.32942 0.28466,-0.65884 0.28467,-0.98828 -10e-6,-0.50129 -0.17188,-0.89338 -0.51562,-1.17627 -0.34376,-0.28286 -0.82358,-0.4243 -1.43946,-0.42432 -0.58008,2e-5 -1.20671,0.11997 -1.87988,0.35987 -0.67318,0.23992 -1.375,0.5962 -2.10547,1.06884 l 0,-3.37304 c 0.86654,-0.30077 1.65788,-0.52277 2.37402,-0.66602 0.71615,-0.14321 1.40723,-0.21483 2.07325,-0.21484 1.74738,1e-5 3.07941,0.3563 3.99609,1.06885 0.91666,0.71257 1.37499,1.75278 1.375,3.1206 -10e-6,0.70184 -0.13966,1.33025 -0.41895,1.88525 -0.2793,0.55503 -0.75554,1.15122 -1.42871,1.78858 l -0.6875,0.6123 c -0.48698,0.44402 -0.80567,0.8003 -0.95605,1.06885 -0.1504,0.26856 -0.22559,0.56397 -0.22559,0.88623 z m -3.87793,1.58984 3.87793,0 0,3.82422 -3.87793,0 z" style="" id="path3164"/>
      <path d="m 530.03125,556.3241 4.13574,0 0,6.1123 6.10156,0 0,-6.1123 4.13575,0 0,16.03808 -4.13575,0 0,-6.7998 -6.10156,0 0,6.7998 -4.13574,0 z" style="" id="path3166"/>
      <path d="m 554.01855,562.79089 c -0.85222,10e-6 -1.50212,0.30617 -1.9497,0.91846 -0.4476,0.61231 -0.67139,1.49496 -0.67139,2.64795 0,1.153 0.22379,2.03565 0.67139,2.64795 0.44758,0.61231 1.09748,0.91846 1.9497,0.91846 0.83789,0 1.47884,-0.30615 1.92286,-0.91846 0.444,-0.6123 0.666,-1.49495 0.66601,-2.64795 -1e-5,-1.15299 -0.22201,-2.03564 -0.66601,-2.64795 -0.44402,-0.61229 -1.08497,-0.91845 -1.92286,-0.91846 z m 0,-2.75 c 2.06966,2e-5 3.68635,0.55861 4.8501,1.67578 1.16373,1.1172 1.74559,2.66408 1.74561,4.64063 -2e-5,1.97657 -0.58188,3.52344 -1.74561,4.64062 -1.16375,1.11719 -2.78044,1.67579 -4.8501,1.67579 -2.07682,0 -3.70068,-0.5586 -4.87158,-1.67579 -1.1709,-1.11718 -1.75635,-2.66405 -1.75635,-4.64062 0,-1.97655 0.58545,-3.52343 1.75635,-4.64063 1.1709,-1.11717 2.79476,-1.67576 4.87158,-1.67578 z" style="" id="path3168"/>
      <path d="m 562.34375,560.33093 3.73828,0 2.01953,8.29297 2.03028,-8.29297 3.21191,0 2.01953,8.20703 2.03027,-8.20703 3.73829,0 -3.16895,12.03125 -4.20019,0 -2.03028,-8.27148 -2.01953,8.27148 -4.20019,0 z" style="" id="path3170"/>
      <path d="m 589.51074,566.94812 -3.87793,0 0,-0.52637 c 0,-0.58723 0.11816,-1.10823 0.35449,-1.56299 0.23633,-0.45474 0.73405,-1.03303 1.49317,-1.73486 l 0.6875,-0.62305 c 0.4082,-0.37238 0.70719,-0.72329 0.89697,-1.05273 0.18977,-0.32942 0.28466,-0.65884 0.28467,-0.98828 -10e-6,-0.50129 -0.17188,-0.89338 -0.51563,-1.17627 -0.34375,-0.28286 -0.82357,-0.4243 -1.43945,-0.42432 -0.58008,2e-5 -1.20671,0.11997 -1.87988,0.35987 -0.67318,0.23992 -1.375,0.5962 -2.10547,1.06884 l 0,-3.37304 c 0.86653,-0.30077 1.65787,-0.52277 2.37402,-0.66602 0.71614,-0.14321 1.40722,-0.21483 2.07325,-0.21484 1.74738,1e-5 3.07941,0.3563 3.99609,1.06885 0.91665,0.71257 1.37499,1.75278 1.375,3.1206 -10e-6,0.70184 -0.13966,1.33025 -0.41895,1.88525 -0.2793,0.55503 -0.75554,1.15122 -1.42871,1.78858 l -0.6875,0.6123 c -0.48698,0.44402 -0.80567,0.8003 -0.95605,1.06885 -0.1504,0.26856 -0.2256,0.56397 -0.22559,0.88623 z m -3.87793,1.58984 3.87793,0 0,3.82422 -3.87793,0 z" style="" id="path3172"/>
    </g>
    <g style="font-size:32px;font-style:normal;font-variant:normal;font-weight:bold;font-stretch:normal;line-height:125%;letter-spacing:0px;word-spacing:0px;fill:#000000;fill-opacity:1;stroke:none;font-family:DejaVu Sans;-inkscape-font-specification:DejaVu Sans Bold" id="text4338">
      <path d="m 182.9375,669.03406 6.01562,0 0,23.32812 -6.01562,0 z" style="" id="path3085"/>
      <path d="m 210.84375,677.76843 c 0.70831,-1.08332 1.54946,-1.90884 2.52344,-2.47656 0.97393,-0.56769 2.04424,-0.85154 3.21093,-0.85156 2.0104,2e-5 3.54164,0.61981 4.59375,1.85937 1.05206,1.2396 1.5781,3.04168 1.57813,5.40625 l 0,10.65625 -5.625,0 0,-9.125 c 0.0104,-0.1354 0.0182,-0.27603 0.0234,-0.42187 0.005,-0.14583 0.008,-0.35416 0.008,-0.625 -3e-5,-1.23957 -0.18232,-2.13801 -0.54688,-2.69531 -0.3646,-0.55728 -0.95314,-0.83593 -1.76562,-0.83594 -1.06252,1e-5 -1.88283,0.43751 -2.46094,1.3125 -0.57814,0.87501 -0.87762,2.14063 -0.89844,3.79687 l 0,8.59375 -5.625,0 0,-9.125 c -1e-5,-1.93749 -0.16668,-3.18488 -0.5,-3.74218 -0.33334,-0.55728 -0.92709,-0.83593 -1.78125,-0.83594 -1.07292,1e-5 -1.90105,0.44012 -2.48437,1.32031 -0.58334,0.88022 -0.87501,2.13803 -0.875,3.77344 l 0,8.60937 -5.625,0 0,-17.5 5.625,0 0,2.5625 c 0.68749,-0.98956 1.47655,-1.73436 2.36719,-2.23437 0.89061,-0.49998 1.87238,-0.74998 2.94531,-0.75 1.20832,2e-5 2.27603,0.29168 3.20312,0.875 0.92707,0.58335 1.63019,1.40105 2.10938,2.45312 z" style="" id="path3087"/>
      <path d="m 233.59375,689.83093 0,9.1875 -5.59375,0 0,-24.15625 5.59375,0 0,2.5625 c 0.77082,-1.02081 1.62499,-1.77342 2.5625,-2.25781 0.93749,-0.48436 2.01561,-0.72654 3.23437,-0.72656 2.15624,2e-5 3.92707,0.85679 5.3125,2.57031 1.3854,1.71356 2.07811,3.91928 2.07813,6.61719 -2e-5,2.69792 -0.69273,4.90365 -2.07813,6.61719 -1.38543,1.71354 -3.15626,2.57031 -5.3125,2.57031 -1.21876,0 -2.29688,-0.24219 -3.23437,-0.72656 -0.93751,-0.48438 -1.79168,-1.23698 -2.5625,-2.25782 z m 3.71875,-11.32812 c -1.19793,1e-5 -2.1172,0.44012 -2.75781,1.32031 -0.64064,0.88022 -0.96095,2.14845 -0.96094,3.80469 -1e-5,1.65625 0.3203,2.92448 0.96094,3.80469 0.64061,0.88021 1.55988,1.32031 2.75781,1.32031 1.1979,0 2.11197,-0.4375 2.74219,-1.3125 0.63019,-0.875 0.94529,-2.14583 0.94531,-3.8125 -2e-5,-1.66666 -0.31512,-2.93749 -0.94531,-3.8125 -0.63022,-0.87499 -1.54429,-1.31249 -2.74219,-1.3125 z" style="" id="path3089"/>
      <path d="m 259.26562,678.44031 c -1.23959,1e-5 -2.1849,0.44532 -2.83593,1.33594 -0.65105,0.89063 -0.97657,2.17448 -0.97657,3.85156 0,1.67709 0.32552,2.96094 0.97657,3.85156 0.65103,0.89063 1.59634,1.33594 2.83593,1.33594 1.21874,0 2.15103,-0.44531 2.79688,-1.33594 0.64582,-0.89062 0.96874,-2.17447 0.96875,-3.85156 -10e-6,-1.67708 -0.32293,-2.96093 -0.96875,-3.85156 -0.64585,-0.89062 -1.57814,-1.33593 -2.79688,-1.33594 z m 0,-4 c 3.01041,2e-5 5.36197,0.81251 7.05469,2.4375 1.69269,1.62501 2.53904,3.87501 2.53906,6.75 -2e-5,2.875 -0.84637,5.125 -2.53906,6.75 -1.69272,1.625 -4.04428,2.4375 -7.05469,2.4375 -3.02084,0 -5.38281,-0.8125 -7.08593,-2.4375 -1.70313,-1.625 -2.55469,-3.875 -2.55469,-6.75 0,-2.87499 0.85156,-5.12499 2.55469,-6.75 1.70312,-1.62499 4.06509,-2.43748 7.08593,-2.4375 z" style="" id="path3091"/>
      <path d="m 285.9375,679.62781 c -0.4896,-0.22916 -0.97658,-0.39843 -1.46094,-0.50781 -0.48439,-0.10937 -0.97136,-0.16405 -1.46094,-0.16407 -1.43751,2e-5 -2.54428,0.46095 -3.32031,1.38282 -0.77605,0.92188 -1.16407,2.24219 -1.16406,3.96093 l 0,8.0625 -5.59375,0 0,-17.5 5.59375,0 0,2.875 c 0.71874,-1.14581 1.54426,-1.98175 2.47656,-2.50781 0.93228,-0.52602 2.04947,-0.78904 3.35156,-0.78906 0.18749,2e-5 0.39062,0.008 0.60938,0.0234 0.21874,0.0156 0.53644,0.0495 0.95312,0.10156 z" style="" id="path3093"/>
      <path d="m 294.85937,669.89343 0,4.96875 5.76563,0 0,4 -5.76563,0 0,7.42188 c 0,0.8125 0.16145,1.36198 0.48438,1.64844 0.32291,0.28646 0.96353,0.42969 1.92187,0.42968 l 2.875,0 0,4 -4.79687,0 c -2.20834,0 -3.77344,-0.46093 -4.69531,-1.38281 -0.92188,-0.92187 -1.38282,-2.48698 -1.38282,-4.69531 l 0,-7.42188 -2.78125,0 0,-4 2.78125,0 0,-4.96875 z" style="" id="path3095"/>
      <path d="m 311.90625,684.48718 c -1.16668,1e-5 -2.04428,0.19793 -2.63281,0.59375 -0.58855,0.39584 -0.88282,0.97918 -0.88282,1.75 0,0.70834 0.23698,1.26303 0.71094,1.66407 0.47395,0.40104 1.13281,0.60156 1.97656,0.60156 1.05208,0 1.93749,-0.3776 2.65625,-1.13281 0.71874,-0.75521 1.07812,-1.70052 1.07813,-2.83594 l 0,-0.64063 z m 8.54687,-2.10937 0,9.98437 -5.64062,0 0,-2.59375 c -0.75001,1.0625 -1.59376,1.83594 -2.53125,2.32032 -0.93751,0.48437 -2.07813,0.72656 -3.42188,0.72656 -1.8125,0 -3.28385,-0.52865 -4.41406,-1.58594 -1.13021,-1.05729 -1.69531,-2.42968 -1.69531,-4.11719 0,-2.05207 0.70573,-3.55728 2.11719,-4.51562 1.41145,-0.95832 3.62759,-1.43749 6.64843,-1.4375 l 3.29688,0 0,-0.4375 c -10e-6,-0.88541 -0.34897,-1.53384 -1.04688,-1.94531 -0.69792,-0.41145 -1.78646,-0.61718 -3.26562,-0.61719 -1.19792,1e-5 -2.31251,0.1198 -3.34375,0.35937 -1.03125,0.2396 -1.98959,0.59897 -2.875,1.07813 l 0,-4.26563 c 1.19791,-0.29165 2.40104,-0.513 3.60937,-0.66406 1.20833,-0.15102 2.41666,-0.22654 3.625,-0.22656 3.15624,2e-5 5.43489,0.62241 6.83594,1.86719 1.40103,1.2448 2.10155,3.26824 2.10156,6.07031 z" style="" id="path3097"/>
      <path d="m 343.28125,681.70593 0,10.65625 -5.625,0 0,-1.73437 0,-6.42188 c -10e-6,-1.5104 -0.0339,-2.55207 -0.10156,-3.125 -0.0677,-0.5729 -0.18491,-0.99478 -0.35157,-1.26562 -0.21876,-0.36457 -0.51563,-0.64843 -0.89062,-0.85156 -0.37501,-0.20312 -0.8021,-0.30468 -1.28125,-0.30469 -1.16668,1e-5 -2.08334,0.45053 -2.75,1.35156 -0.66668,0.90105 -1.00001,2.14845 -1,3.74219 l 0,8.60937 -5.59375,0 0,-17.5 5.59375,0 0,2.5625 c 0.84374,-1.02081 1.73957,-1.77342 2.6875,-2.25781 0.9479,-0.48436 1.99478,-0.72654 3.14062,-0.72656 2.02082,2e-5 3.55467,0.61981 4.60157,1.85937 1.04685,1.2396 1.57029,3.04168 1.57031,5.40625 z" style="" id="path3099"/>
      <path d="m 354.60937,669.89343 0,4.96875 5.76563,0 0,4 -5.76563,0 0,7.42188 c 0,0.8125 0.16145,1.36198 0.48438,1.64844 0.32291,0.28646 0.96353,0.42969 1.92187,0.42968 l 2.875,0 0,4 -4.79687,0 c -2.20834,0 -3.77344,-0.46093 -4.69531,-1.38281 -0.92188,-0.92187 -1.38282,-2.48698 -1.38282,-4.69531 l 0,-7.42188 -2.78125,0 0,-4 2.78125,0 0,-4.96875 z" style="" id="path3101"/>
      <path d="m 381.20312,673.58093 0,14.23438 2.15625,0 c 2.45832,0 4.33593,-0.60937 5.63282,-1.82813 1.29685,-1.21874 1.94529,-2.98957 1.94531,-5.3125 -2e-5,-2.31248 -0.64585,-4.0729 -1.9375,-5.28125 -1.29168,-1.20831 -3.17189,-1.81248 -5.64063,-1.8125 z m -6.01562,-4.54687 6.34375,0 c 3.54165,2e-5 6.17967,0.25262 7.91406,0.75781 1.73436,0.50523 3.22134,1.362 4.46094,2.57031 1.09373,1.0521 1.90623,2.26565 2.4375,3.64063 0.53123,1.37501 0.79685,2.9323 0.79687,4.67187 -2e-5,1.76043 -0.26564,3.33074 -0.79687,4.71094 -0.53127,1.38021 -1.34377,2.59636 -2.4375,3.64844 -1.25002,1.20833 -2.75002,2.0651 -4.5,2.57031 -1.75002,0.50521 -4.37501,0.75781 -7.875,0.75781 l -6.34375,0 z" style="" id="path3103"/>
      <path d="m 418.96875,683.56531 0,1.59375 -13.07813,0 c 0.13541,1.3125 0.60937,2.29688 1.42188,2.95312 0.81249,0.65626 1.94791,0.98438 3.40625,0.98438 1.17707,0 2.3828,-0.17448 3.61719,-0.52344 1.23436,-0.34895 2.50258,-0.8776 3.80468,-1.58594 l 0,4.3125 c -1.32293,0.5 -2.64585,0.87761 -3.96875,1.13282 -1.32293,0.2552 -2.64584,0.38281 -3.96875,0.38281 -3.16667,0 -5.6276,-0.80469 -7.38281,-2.41406 -1.75521,-1.60938 -2.63281,-3.86719 -2.63281,-6.77344 0,-2.85416 0.86198,-5.09895 2.58594,-6.73438 1.72395,-1.6354 4.09634,-2.4531 7.11718,-2.45312 2.74999,2e-5 4.95051,0.82814 6.60157,2.48437 1.65102,1.65627 2.47654,3.86981 2.47656,6.64063 z m -5.75,-1.85938 c -10e-6,-1.06249 -0.30991,-1.91926 -0.92969,-2.57031 -0.6198,-0.65103 -1.4297,-0.97655 -2.42969,-0.97656 -1.08334,1e-5 -1.96355,0.3047 -2.64062,0.91406 -0.67709,0.60939 -1.09897,1.48699 -1.26563,2.63281 z" style="" id="path3105"/>
      <path d="m 429.29687,669.89343 0,4.96875 5.76563,0 0,4 -5.76563,0 0,7.42188 c 0,0.8125 0.16145,1.36198 0.48438,1.64844 0.32291,0.28646 0.96353,0.42969 1.92187,0.42968 l 2.875,0 0,4 -4.79687,0 c -2.20834,0 -3.77344,-0.46093 -4.69531,-1.38281 -0.92188,-0.92187 -1.38282,-2.48698 -1.38282,-4.69531 l 0,-7.42188 -2.78125,0 0,-4 2.78125,0 0,-4.96875 z" style="" id="path3107"/>
      <path d="m 446.34375,684.48718 c -1.16668,1e-5 -2.04428,0.19793 -2.63281,0.59375 -0.58855,0.39584 -0.88282,0.97918 -0.88282,1.75 0,0.70834 0.23698,1.26303 0.71094,1.66407 0.47395,0.40104 1.13281,0.60156 1.97656,0.60156 1.05208,0 1.93749,-0.3776 2.65625,-1.13281 0.71874,-0.75521 1.07812,-1.70052 1.07813,-2.83594 l 0,-0.64063 z m 8.54687,-2.10937 0,9.98437 -5.64062,0 0,-2.59375 c -0.75001,1.0625 -1.59376,1.83594 -2.53125,2.32032 -0.93751,0.48437 -2.07813,0.72656 -3.42188,0.72656 -1.8125,0 -3.28385,-0.52865 -4.41406,-1.58594 -1.13021,-1.05729 -1.69531,-2.42968 -1.69531,-4.11719 0,-2.05207 0.70573,-3.55728 2.11719,-4.51562 1.41145,-0.95832 3.62759,-1.43749 6.64843,-1.4375 l 3.29688,0 0,-0.4375 c -10e-6,-0.88541 -0.34897,-1.53384 -1.04688,-1.94531 -0.69792,-0.41145 -1.78646,-0.61718 -3.26562,-0.61719 -1.19792,1e-5 -2.31251,0.1198 -3.34375,0.35937 -1.03125,0.2396 -1.98959,0.59897 -2.875,1.07813 l 0,-4.26563 c 1.19791,-0.29165 2.40104,-0.513 3.60937,-0.66406 1.20833,-0.15102 2.41666,-0.22654 3.625,-0.22656 3.15624,2e-5 5.43489,0.62241 6.83594,1.86719 1.40103,1.2448 2.10155,3.26824 2.10156,6.07031 z" style="" id="path3109"/>
      <path d="m 460.125,674.86218 5.59375,0 0,17.5 -5.59375,0 z m 0,-6.8125 5.59375,0 0,4.5625 -5.59375,0 z" style="" id="path3111"/>
      <path d="m 471.125,668.04968 5.59375,0 0,24.3125 -5.59375,0 z" style="" id="path3113"/>
      <path d="m 495.79687,675.40906 0,4.25 c -1.19793,-0.49999 -2.35418,-0.87499 -3.46875,-1.125 -1.11459,-0.24999 -2.16667,-0.37499 -3.15625,-0.375 -1.0625,1e-5 -1.85157,0.13282 -2.36718,0.39844 -0.51563,0.26563 -0.77345,0.67449 -0.77344,1.22656 -10e-6,0.44793 0.19531,0.79168 0.58594,1.03125 0.39061,0.23959 1.09114,0.41668 2.10156,0.53125 l 0.98437,0.14062 c 2.86458,0.3646 4.79166,0.96355 5.78125,1.79688 0.98957,0.83334 1.48436,2.14063 1.48438,3.92187 -2e-5,1.86459 -0.68752,3.26563 -2.0625,4.20313 -1.37501,0.9375 -3.4271,1.40625 -6.15625,1.40625 -1.15626,0 -2.35157,-0.0911 -3.58594,-0.27344 -1.23438,-0.18229 -2.5026,-0.45573 -3.80469,-0.82031 l 0,-4.25 c 1.11459,0.54167 2.25781,0.94792 3.42969,1.21875 1.17187,0.27083 2.36197,0.40625 3.57031,0.40625 1.09374,0 1.91666,-0.15104 2.46875,-0.45313 0.55208,-0.30208 0.82812,-0.74999 0.82813,-1.34375 -10e-6,-0.49999 -0.19012,-0.87239 -0.57031,-1.11718 -0.38022,-0.24479 -1.13803,-0.43489 -2.27344,-0.57032 l -0.98438,-0.125 c -2.48958,-0.31249 -4.23437,-0.89061 -5.23437,-1.73437 -1,-0.84374 -1.5,-2.12499 -1.5,-3.84375 0,-1.85415 0.63541,-3.22915 1.90625,-4.125 1.27083,-0.89582 3.21874,-1.34373 5.84375,-1.34375 1.03124,2e-5 2.11457,0.0781 3.25,0.23437 1.1354,0.15627 2.36978,0.40106 3.70312,0.73438 z" style="" id="path3115"/>
    </g>
    <g style="font-size:24px;font-style:normal;font-variant:normal;font-weight:bold;font-stretch:normal;text-align:center;line-height:125%;letter-spacing:0px;word-spacing:0px;text-anchor:middle;fill:#000000;fill-opacity:1;stroke:none;font-family:DejaVu Sans;-inkscape-font-specification:DejaVu Sans Bold" id="text4346">
      <path d="m 223.96094,797.81921 c -1.37501,2e-5 -2.44142,0.50783 -3.19922,1.52344 -0.75782,1.01564 -1.13673,2.44532 -1.13672,4.28906 -1e-5,1.83595 0.3789,3.26173 1.13672,4.27735 0.7578,1.01563 1.82421,1.52344 3.19922,1.52344 1.3828,0 2.45311,-0.50781 3.21093,-1.52344 0.7578,-1.01562 1.13671,-2.4414 1.13672,-4.27735 -1e-5,-1.84374 -0.37892,-3.27342 -1.13672,-4.28906 -0.75782,-1.01561 -1.82813,-1.52342 -3.21093,-1.52344 z m 0,-3.26953 c 2.81248,2e-5 5.01561,0.80471 6.60937,2.41407 1.59373,1.60938 2.39061,3.83204 2.39063,6.66796 -2e-5,2.82813 -0.7969,5.04688 -2.39063,6.65625 -1.59376,1.60938 -3.79689,2.41407 -6.60937,2.41407 -2.8047,0 -5.00587,-0.80469 -6.60352,-2.41407 -1.59766,-1.60937 -2.39648,-3.82812 -2.39648,-6.65625 0,-2.83592 0.79882,-5.05858 2.39648,-6.66796 1.59765,-1.60936 3.79882,-2.41405 6.60352,-2.41407 z" style="" id="path3024"/>
      <path d="m 240.75391,795.51062 0,3.72656 4.32421,0 0,3 -4.32421,0 0,5.56641 c -1e-5,0.60938 0.12108,1.02149 0.36328,1.23633 0.24218,0.21484 0.72265,0.32227 1.4414,0.32226 l 2.15625,0 0,3 -3.59765,0 c -1.65626,0 -2.83008,-0.3457 -3.52149,-1.03711 -0.69141,-0.6914 -1.03711,-1.86523 -1.03711,-3.52148 l 0,-5.56641 -2.08593,0 0,-3 2.08593,0 0,-3.72656 z" style="" id="path3026"/>
      <path d="m 260.85156,804.37 0,7.99218 -4.21875,0 0,-1.30078 0,-4.79297 c -1e-5,-1.14843 -0.0254,-1.93749 -0.0762,-2.36718 -0.0508,-0.42968 -0.13868,-0.74609 -0.26367,-0.94922 -0.16407,-0.27343 -0.38673,-0.48632 -0.66797,-0.63868 -0.28126,-0.15233 -0.60157,-0.2285 -0.96094,-0.22851 -0.87501,10e-6 -1.5625,0.3379 -2.0625,1.01367 -0.5,0.67579 -0.75,1.61134 -0.75,2.80664 l 0,6.45703 -4.19531,0 0,-18.23437 4.19531,0 0,7.03125 c 0.63281,-0.76562 1.30468,-1.33007 2.01563,-1.69336 0.71093,-0.36327 1.49608,-0.54491 2.35547,-0.54492 1.51561,10e-6 2.666,0.46485 3.45117,1.39453 0.78514,0.9297 1.17772,2.28126 1.17773,4.05469 z" style="" id="path3028"/>
      <path d="m 277.86719,805.76453 0,1.19531 -9.8086,0 c 0.10156,0.98438 0.45703,1.72266 1.06641,2.21484 0.60937,0.49219 1.46093,0.73829 2.55469,0.73828 0.8828,10e-6 1.7871,-0.13085 2.71289,-0.39257 0.92577,-0.26172 1.87694,-0.6582 2.85351,-1.18946 l 0,3.23438 c -0.9922,0.375 -1.98438,0.6582 -2.97656,0.84961 -0.9922,0.1914 -1.98438,0.28711 -2.97656,0.28711 -2.37501,0 -4.22071,-0.60352 -5.53711,-1.81055 -1.31641,-1.20703 -1.97461,-2.90039 -1.97461,-5.08008 0,-2.14061 0.64648,-3.82421 1.93945,-5.05078 1.29297,-1.22655 3.07226,-1.83983 5.33789,-1.83984 2.06249,10e-6 3.71288,0.6211 4.95118,1.86328 1.23826,1.2422 1.8574,2.90235 1.85742,4.98047 z m -4.3125,-1.39453 c -10e-6,-0.79687 -0.23243,-1.43945 -0.69727,-1.92774 -0.46485,-0.48827 -1.07227,-0.73241 -1.82226,-0.73242 -0.81251,10e-6 -1.47267,0.22852 -1.98047,0.68555 -0.50782,0.45704 -0.82423,1.11524 -0.94922,1.97461 z" style="" id="path3030"/>
      <path d="m 290.78125,802.8114 c -0.3672,-0.17186 -0.73243,-0.29882 -1.0957,-0.38086 -0.36329,-0.082 -0.72853,-0.12303 -1.09571,-0.12304 -1.07813,10e-6 -1.90821,0.34571 -2.49023,1.0371 -0.58204,0.69142 -0.87305,1.68165 -0.87305,2.97071 l 0,6.04687 -4.19531,0 0,-13.125 4.19531,0 0,2.15625 c 0.53906,-0.85936 1.1582,-1.48631 1.85742,-1.88086 0.69921,-0.39451 1.5371,-0.59178 2.51368,-0.59179 0.14061,10e-6 0.29295,0.006 0.45703,0.0176 0.16405,0.0117 0.40233,0.0371 0.71484,0.0762 z" style="" id="path3032"/>
      <path d="m 317.14844,811.0614 c -1.12502,0.54688 -2.29299,0.95703 -3.50391,1.23047 -1.21095,0.27344 -2.46095,0.41016 -3.75,0.41016 -2.91407,0 -5.22266,-0.81446 -6.92578,-2.44336 -1.70313,-1.62891 -2.55469,-3.83789 -2.55469,-6.62696 0,-2.8203 0.86719,-5.03904 2.60156,-6.65625 1.73437,-1.61717 4.10937,-2.42576 7.125,-2.42578 1.16406,2e-5 2.27929,0.1094 3.34571,0.32813 1.06639,0.21876 2.07225,0.54298 3.01758,0.97265 l 0,3.6211 c -0.97658,-0.55468 -1.94728,-0.96874 -2.91211,-1.24219 -0.96486,-0.27342 -1.93166,-0.41014 -2.90039,-0.41016 -1.79689,2e-5 -3.18165,0.50197 -4.1543,1.50586 -0.97266,1.00392 -1.45899,2.43947 -1.45899,4.30664 0,1.85157 0.46875,3.28126 1.40625,4.28907 0.9375,1.00781 2.26953,1.51172 3.9961,1.51172 0.46874,0 0.90428,-0.0293 1.30664,-0.0879 0.40233,-0.0586 0.76366,-0.15038 1.08398,-0.27539 l 0,-3.39843 -2.7539,0 0,-3.02344 7.03125,0 z" style="" id="path3034"/>
      <path d="m 334.02344,805.76453 0,1.19531 -9.8086,0 c 0.10156,0.98438 0.45703,1.72266 1.06641,2.21484 0.60937,0.49219 1.46093,0.73829 2.55469,0.73828 0.8828,10e-6 1.7871,-0.13085 2.71289,-0.39257 0.92577,-0.26172 1.87694,-0.6582 2.85351,-1.18946 l 0,3.23438 c -0.9922,0.375 -1.98438,0.6582 -2.97656,0.84961 -0.9922,0.1914 -1.98438,0.28711 -2.97656,0.28711 -2.37501,0 -4.22071,-0.60352 -5.53711,-1.81055 -1.31641,-1.20703 -1.97461,-2.90039 -1.97461,-5.08008 0,-2.14061 0.64648,-3.82421 1.93945,-5.05078 1.29297,-1.22655 3.07226,-1.83983 5.33789,-1.83984 2.06249,10e-6 3.71288,0.6211 4.95118,1.86328 1.23826,1.2422 1.8574,2.90235 1.85742,4.98047 z m -4.3125,-1.39453 c -10e-6,-0.79687 -0.23243,-1.43945 -0.69727,-1.92774 -0.46485,-0.48827 -1.07227,-0.73241 -1.82226,-0.73242 -0.81251,10e-6 -1.47267,0.22852 -1.98047,0.68555 -0.50782,0.45704 -0.82423,1.11524 -0.94922,1.97461 z" style="" id="path3036"/>
      <path d="m 350.38281,804.37 0,7.99218 -4.21875,0 0,-1.30078 0,-4.8164 c -1e-5,-1.13281 -0.0254,-1.91406 -0.0762,-2.34375 -0.0508,-0.42968 -0.13868,-0.74609 -0.26367,-0.94922 -0.16407,-0.27343 -0.38673,-0.48632 -0.66797,-0.63868 -0.28126,-0.15233 -0.60157,-0.2285 -0.96094,-0.22851 -0.87501,10e-6 -1.5625,0.3379 -2.0625,1.01367 -0.5,0.67579 -0.75,1.61134 -0.75,2.80664 l 0,6.45703 -4.19531,0 0,-13.125 4.19531,0 0,1.92188 c 0.63281,-0.76562 1.30468,-1.33007 2.01563,-1.69336 0.71093,-0.36327 1.49608,-0.54491 2.35547,-0.54492 1.51561,10e-6 2.666,0.46485 3.45117,1.39453 0.78514,0.9297 1.17772,2.28126 1.17773,4.05469 z" style="" id="path3038"/>
      <path d="m 367.39844,805.76453 0,1.19531 -9.8086,0 c 0.10156,0.98438 0.45703,1.72266 1.06641,2.21484 0.60937,0.49219 1.46093,0.73829 2.55469,0.73828 0.8828,10e-6 1.7871,-0.13085 2.71289,-0.39257 0.92577,-0.26172 1.87694,-0.6582 2.85351,-1.18946 l 0,3.23438 c -0.9922,0.375 -1.98438,0.6582 -2.97656,0.84961 -0.9922,0.1914 -1.98438,0.28711 -2.97656,0.28711 -2.37501,0 -4.22071,-0.60352 -5.53711,-1.81055 -1.31641,-1.20703 -1.97461,-2.90039 -1.97461,-5.08008 0,-2.14061 0.64648,-3.82421 1.93945,-5.05078 1.29297,-1.22655 3.07226,-1.83983 5.33789,-1.83984 2.06249,10e-6 3.71288,0.6211 4.95118,1.86328 1.23826,1.2422 1.8574,2.90235 1.85742,4.98047 z m -4.3125,-1.39453 c -10e-6,-0.79687 -0.23243,-1.43945 -0.69727,-1.92774 -0.46485,-0.48827 -1.07227,-0.73241 -1.82226,-0.73242 -0.81251,10e-6 -1.47267,0.22852 -1.98047,0.68555 -0.50782,0.45704 -0.82423,1.11524 -0.94922,1.97461 z" style="" id="path3040"/>
      <path d="m 380.3125,802.8114 c -0.3672,-0.17186 -0.73243,-0.29882 -1.0957,-0.38086 -0.36329,-0.082 -0.72853,-0.12303 -1.09571,-0.12304 -1.07813,10e-6 -1.90821,0.34571 -2.49023,1.0371 -0.58204,0.69142 -0.87305,1.68165 -0.87305,2.97071 l 0,6.04687 -4.19531,0 0,-13.125 4.19531,0 0,2.15625 c 0.53906,-0.85936 1.1582,-1.48631 1.85742,-1.88086 0.69921,-0.39451 1.5371,-0.59178 2.51368,-0.59179 0.14061,10e-6 0.29295,0.006 0.45703,0.0176 0.16405,0.0117 0.40233,0.0371 0.71484,0.0762 z" style="" id="path3042"/>
      <path d="m 388.30469,806.45593 c -0.87501,1e-5 -1.53321,0.14845 -1.97461,0.44532 -0.44141,0.29688 -0.66212,0.73437 -0.66211,1.3125 -1e-5,0.53125 0.17773,0.94726 0.5332,1.24804 0.35546,0.30079 0.8496,0.45118 1.48242,0.45117 0.78906,10e-6 1.45312,-0.2832 1.99219,-0.84961 0.53905,-0.5664 0.80858,-1.27538 0.80859,-2.12695 l 0,-0.48047 z m 6.41015,-1.58203 0,7.48828 -4.23047,0 0,-1.94531 c -0.5625,0.79688 -1.19532,1.37695 -1.89843,1.74023 -0.70313,0.36329 -1.5586,0.54493 -2.56641,0.54493 -1.35938,0 -2.46289,-0.39649 -3.31055,-1.18946 -0.84765,-0.79296 -1.27148,-1.82226 -1.27148,-3.08789 0,-1.53905 0.5293,-2.66796 1.58789,-3.38672 1.05859,-0.71874 2.7207,-1.07811 4.98633,-1.07812 l 2.47265,0 0,-0.32813 c -1e-5,-0.66405 -0.26172,-1.15038 -0.78515,-1.45898 -0.52345,-0.30858 -1.33985,-0.46288 -2.44922,-0.46289 -0.89844,10e-6 -1.73438,0.0899 -2.50781,0.26953 -0.77344,0.1797 -1.49219,0.44923 -2.15625,0.80859 l 0,-3.19921 c 0.89843,-0.21874 1.80077,-0.38476 2.70703,-0.49805 0.90624,-0.11327 1.81249,-0.16991 2.71875,-0.16992 2.36718,10e-6 4.07616,0.46681 5.12695,1.40039 1.05077,0.9336 1.57616,2.45118 1.57617,4.55273 z" style="" id="path3044"/>
      <path d="m 398.64062,794.12781 4.19532,0 0,18.23437 -4.19532,0 z" style="" id="path3046"/>
      <path d="m 415.42187,794.86609 4.51172,0 0,17.49609 -4.51172,0 z" style="" id="path3048"/>
      <path d="m 437.38281,804.37 0,7.99218 -4.21875,0 0,-1.30078 0,-4.8164 c -1e-5,-1.13281 -0.0254,-1.91406 -0.0762,-2.34375 -0.0508,-0.42968 -0.13868,-0.74609 -0.26367,-0.94922 -0.16407,-0.27343 -0.38673,-0.48632 -0.66797,-0.63868 -0.28126,-0.15233 -0.60157,-0.2285 -0.96094,-0.22851 -0.87501,10e-6 -1.5625,0.3379 -2.0625,1.01367 -0.5,0.67579 -0.75,1.61134 -0.75,2.80664 l 0,6.45703 -4.19531,0 0,-13.125 4.19531,0 0,1.92188 c 0.63281,-0.76562 1.30468,-1.33007 2.01563,-1.69336 0.71093,-0.36327 1.49608,-0.54491 2.35547,-0.54492 1.51561,10e-6 2.666,0.46485 3.45117,1.39453 0.78514,0.9297 1.17772,2.28126 1.17773,4.05469 z" style="" id="path3050"/>
      <path d="m 449.93359,794.12781 0,2.7539 -2.32031,0 c -0.59376,2e-5 -1.00782,0.10744 -1.24219,0.32227 -0.23438,0.21486 -0.35157,0.5879 -0.35156,1.11914 l 0,0.91406 3.58594,0 0,3 -3.58594,0 0,10.125 -4.19531,0 0,-10.125 -2.08594,0 0,-3 2.08594,0 0,-0.91406 c 0,-1.42967 0.39843,-2.48631 1.19531,-3.16992 0.79687,-0.68358 2.03125,-1.02537 3.70313,-1.02539 z" style="" id="path3052"/>
      <path d="m 457.99609,801.92078 c -0.92969,10e-6 -1.63867,0.33399 -2.12695,1.00195 -0.48829,0.66798 -0.73243,1.63087 -0.73242,2.88867 -1e-5,1.25782 0.24413,2.22071 0.73242,2.88867 0.48828,0.66797 1.19726,1.00196 2.12695,1.00196 0.91406,0 1.61328,-0.33399 2.09766,-1.00196 0.48436,-0.66796 0.72655,-1.63085 0.72656,-2.88867 -1e-5,-1.2578 -0.2422,-2.22069 -0.72656,-2.88867 -0.48438,-0.66796 -1.1836,-1.00194 -2.09766,-1.00195 z m 0,-3 c 2.25781,10e-6 4.02148,0.60938 5.29102,1.82812 1.26952,1.21876 1.90428,2.90626 1.9043,5.0625 -2e-5,2.15626 -0.63478,3.84375 -1.9043,5.0625 -1.26954,1.21875 -3.03321,1.82813 -5.29102,1.82813 -2.26563,0 -4.03711,-0.60938 -5.31445,-1.82813 -1.27734,-1.21875 -1.91602,-2.90624 -1.91602,-5.0625 0,-2.15624 0.63868,-3.84374 1.91602,-5.0625 1.27734,-1.21874 3.04882,-1.82811 5.31445,-1.82812 z" style="" id="path3054"/>
      <path d="m 268.35156,831.63953 c 0.71093,10e-6 1.24999,-0.15624 1.61719,-0.46875 0.36718,-0.31249 0.55077,-0.77343 0.55078,-1.38282 -10e-6,-0.60155 -0.1836,-1.06053 -0.55078,-1.37695 -0.3672,-0.31639 -0.90626,-0.47459 -1.61719,-0.47461 l -2.49609,0 0,3.70313 z m 0.15235,7.65234 c 0.90624,0 1.58788,-0.1914 2.04492,-0.57422 0.45702,-0.38281 0.68553,-0.96093 0.68554,-1.73437 -1e-5,-0.75781 -0.22657,-1.32617 -0.67968,-1.70508 -0.45314,-0.3789 -1.13673,-0.56835 -2.05078,-0.56836 l -2.64844,0 0,4.58203 z m 4.19531,-6.29297 c 0.96873,0.28126 1.71873,0.80079 2.25,1.5586 0.53123,0.75781 0.79686,1.6875 0.79687,2.78906 -10e-6,1.6875 -0.57032,2.94531 -1.71093,3.77344 -1.14064,0.82812 -2.87502,1.24218 -5.20313,1.24218 l -7.48828,0 0,-17.49609 6.77344,0 c 2.42967,2e-5 4.18944,0.3672 5.27929,1.10156 1.08983,0.73439 1.63475,1.91017 1.63477,3.52735 -2e-5,0.85157 -0.19923,1.57618 -0.59766,2.17382 -0.39845,0.59767 -0.97657,1.04103 -1.73437,1.33008 z" style="" id="path3056"/>
      <path d="m 285.32031,836.45593 c -0.875,1e-5 -1.53321,0.14845 -1.97461,0.44532 -0.44141,0.29688 -0.66211,0.73437 -0.66211,1.3125 0,0.53125 0.17773,0.94726 0.53321,1.24804 0.35546,0.30079 0.8496,0.45118 1.48242,0.45117 0.78905,10e-6 1.45312,-0.2832 1.99219,-0.84961 0.53905,-0.5664 0.80858,-1.27538 0.80859,-2.12695 l 0,-0.48047 z m 6.41016,-1.58203 0,7.48828 -4.23047,0 0,-1.94531 c -0.56251,0.79688 -1.19532,1.37695 -1.89844,1.74023 -0.70313,0.36329 -1.5586,0.54493 -2.5664,0.54493 -1.35938,0 -2.4629,-0.39649 -3.31055,-1.18946 -0.84766,-0.79296 -1.27149,-1.82226 -1.27149,-3.08789 0,-1.53905 0.5293,-2.66796 1.5879,-3.38672 1.05859,-0.71874 2.72069,-1.07811 4.98632,-1.07812 l 2.47266,0 0,-0.32813 c -10e-6,-0.66405 -0.26173,-1.15038 -0.78516,-1.45898 -0.52344,-0.30858 -1.33985,-0.46288 -2.44922,-0.46289 -0.89844,10e-6 -1.73438,0.0899 -2.50781,0.26953 -0.77344,0.1797 -1.49219,0.44923 -2.15625,0.80859 l 0,-3.19921 c 0.89844,-0.21874 1.80078,-0.38476 2.70703,-0.49805 0.90625,-0.11327 1.8125,-0.16991 2.71875,-0.16992 2.36718,10e-6 4.07616,0.46681 5.12696,1.40039 1.05076,0.9336 1.57615,2.45118 1.57617,4.55273 z" style="" id="path3058"/>
      <path d="m 306.26172,829.64734 0,3.42187 c -0.57033,-0.39061 -1.14259,-0.67967 -1.7168,-0.86718 -0.57423,-0.18749 -1.16993,-0.28124 -1.78711,-0.28125 -1.17188,10e-6 -2.08399,0.3418 -2.73633,1.02539 -0.65235,0.6836 -0.97852,1.63868 -0.97851,2.86523 -1e-5,1.22657 0.32616,2.18165 0.97851,2.86524 0.65234,0.68359 1.56445,1.02539 2.73633,1.02539 0.65624,0 1.27929,-0.0977 1.86914,-0.29297 0.58984,-0.19531 1.13476,-0.48437 1.63477,-0.86719 l 0,3.43359 c -0.65626,0.24219 -1.32228,0.42383 -1.99805,0.54493 -0.67579,0.12109 -1.35352,0.18164 -2.0332,0.18164 -2.36719,0 -4.21876,-0.60743 -5.55469,-1.82227 -1.33594,-1.21484 -2.00391,-2.90429 -2.00391,-5.06836 0,-2.16405 0.66797,-3.8535 2.00391,-5.06836 1.33593,-1.21483 3.1875,-1.82225 5.55469,-1.82226 0.68749,10e-6 1.36522,0.0606 2.0332,0.18164 0.66796,0.1211 1.33397,0.30274 1.99805,0.54492 z" style="" id="path3060"/>
      <path d="m 309.90625,824.12781 4.19531,0 0,9.92578 4.82813,-4.81641 4.875,0 -6.41016,6.02344 6.91406,7.10156 -5.08593,0 -5.1211,-5.47265 0,5.47265 -4.19531,0 z" style="" id="path3062"/>
      <path d="m 334.82031,840.13562 c -0.57813,0.76563 -1.21485,1.32813 -1.91015,1.6875 -0.69532,0.35938 -1.50001,0.53906 -2.41407,0.53906 -1.60156,0 -2.92578,-0.63086 -3.97265,-1.89258 -1.04688,-1.26171 -1.57032,-2.86913 -1.57032,-4.82226 0,-1.96093 0.52344,-3.56835 1.57032,-4.82227 1.04687,-1.25389 2.37109,-1.88084 3.97265,-1.88086 0.91406,2e-5 1.71875,0.1797 2.41407,0.53907 0.6953,0.35938 1.33202,0.92579 1.91015,1.69922 l 0,-1.94532 4.21875,0 0,11.80078 c -1e-5,2.10938 -0.66603,3.7207 -1.99804,4.83399 -1.33205,1.11327 -3.26369,1.66991 -5.79493,1.66992 -0.82032,-10e-6 -1.61328,-0.0625 -2.3789,-0.1875 -0.76563,-0.125 -1.53516,-0.31641 -2.3086,-0.57422 l 0,-3.26953 c 0.73438,0.42187 1.45312,0.73633 2.15625,0.94336 0.70312,0.20703 1.41015,0.31054 2.1211,0.31055 1.37499,-1e-5 2.3828,-0.30079 3.02343,-0.90235 0.64062,-0.60156 0.96093,-1.54297 0.96094,-2.82422 z m -2.76562,-8.16797 c -0.8672,10e-6 -1.54298,0.32032 -2.02735,0.96094 -0.48438,0.64063 -0.72656,1.54688 -0.72656,2.71875 0,1.20313 0.23437,2.11524 0.70313,2.73633 0.46874,0.62109 1.15233,0.93164 2.05078,0.93164 0.87499,0 1.55468,-0.32031 2.03906,-0.96094 0.48436,-0.64062 0.72655,-1.54296 0.72656,-2.70703 -1e-5,-1.17187 -0.2422,-2.07812 -0.72656,-2.71875 -0.48438,-0.64062 -1.16407,-0.96093 -2.03906,-0.96094 z" style="" id="path3064"/>
      <path d="m 352.84375,832.8114 c -0.3672,-0.17186 -0.73243,-0.29882 -1.0957,-0.38086 -0.36329,-0.082 -0.72853,-0.12303 -1.09571,-0.12304 -1.07813,10e-6 -1.90821,0.34571 -2.49023,1.0371 -0.58204,0.69142 -0.87305,1.68165 -0.87305,2.97071 l 0,6.04687 -4.19531,0 0,-13.125 4.19531,0 0,2.15625 c 0.53906,-0.85936 1.1582,-1.48631 1.85742,-1.88086 0.69921,-0.39451 1.5371,-0.59178 2.51368,-0.59179 0.14061,10e-6 0.29295,0.006 0.45703,0.0176 0.16405,0.0117 0.40233,0.0371 0.71484,0.0762 z" style="" id="path3066"/>
      <path d="m 361.19922,831.92078 c -0.9297,10e-6 -1.63868,0.33399 -2.12695,1.00195 -0.48829,0.66798 -0.73243,1.63087 -0.73243,2.88867 0,1.25782 0.24414,2.22071 0.73243,2.88867 0.48827,0.66797 1.19725,1.00196 2.12695,1.00196 0.91405,0 1.61327,-0.33399 2.09765,-1.00196 0.48437,-0.66796 0.72656,-1.63085 0.72657,-2.88867 -10e-6,-1.2578 -0.2422,-2.22069 -0.72657,-2.88867 -0.48438,-0.66796 -1.1836,-1.00194 -2.09765,-1.00195 z m 0,-3 c 2.2578,10e-6 4.02147,0.60938 5.29101,1.82812 1.26952,1.21876 1.90429,2.90626 1.9043,5.0625 -10e-6,2.15626 -0.63478,3.84375 -1.9043,5.0625 -1.26954,1.21875 -3.03321,1.82813 -5.29101,1.82813 -2.26563,0 -4.03711,-0.60938 -5.31445,-1.82813 -1.27735,-1.21875 -1.91602,-2.90624 -1.91602,-5.0625 0,-2.15624 0.63867,-3.84374 1.91602,-5.0625 1.27734,-1.21874 3.04882,-1.82811 5.31445,-1.82812 z" style="" id="path3068"/>
      <path d="m 371.3125,837.25281 0,-8.01563 4.21875,0 0,1.3125 c -10e-6,0.71095 -0.004,1.60353 -0.0117,2.67774 -0.008,1.07422 -0.0117,1.79102 -0.0117,2.15039 0,1.05469 0.0273,1.81446 0.082,2.27929 0.0547,0.46485 0.14843,0.80274 0.28125,1.01368 0.17187,0.27344 0.39648,0.48437 0.67383,0.63281 0.27734,0.14844 0.5957,0.22266 0.95508,0.22266 0.87499,0 1.56249,-0.33594 2.0625,-1.00782 0.49999,-0.67187 0.74999,-1.60546 0.75,-2.80078 l 0,-6.48047 4.19531,0 0,13.125 -4.19531,0 0,-1.89843 c -0.63282,0.76562 -1.30274,1.33007 -2.00977,1.69335 -0.70704,0.36329 -1.48633,0.54493 -2.33789,0.54493 -1.51563,0 -2.66992,-0.46485 -3.46289,-1.39453 -0.79297,-0.92969 -1.18945,-2.28125 -1.18945,-4.05469 z" style="" id="path3070"/>
      <path d="m 401.75781,834.37 0,7.99218 -4.21875,0 0,-1.30078 0,-4.8164 c -1e-5,-1.13281 -0.0254,-1.91406 -0.0762,-2.34375 -0.0508,-0.42968 -0.13868,-0.74609 -0.26367,-0.94922 -0.16407,-0.27343 -0.38673,-0.48632 -0.66797,-0.63868 -0.28126,-0.15233 -0.60157,-0.2285 -0.96094,-0.22851 -0.87501,10e-6 -1.5625,0.3379 -2.0625,1.01367 -0.5,0.67579 -0.75,1.61134 -0.75,2.80664 l 0,6.45703 -4.19531,0 0,-13.125 4.19531,0 0,1.92188 c 0.63281,-0.76562 1.30468,-1.33007 2.01563,-1.69336 0.71093,-0.36327 1.49608,-0.54491 2.35547,-0.54492 1.51561,10e-6 2.666,0.46485 3.45117,1.39453 0.78514,0.9297 1.17772,2.28126 1.17773,4.05469 z" style="" id="path3072"/>
      <path d="m 414.60156,831.15906 0,-7.03125 4.21875,0 0,18.23437 -4.21875,0 0,-1.89843 c -0.57813,0.77343 -1.21485,1.33984 -1.91015,1.69921 -0.69532,0.35938 -1.50001,0.53907 -2.41407,0.53907 -1.61719,0 -2.94531,-0.64258 -3.98437,-1.92774 -1.03907,-1.28515 -1.5586,-2.93945 -1.5586,-4.96289 0,-2.02343 0.51953,-3.67772 1.5586,-4.96289 1.03906,-1.28514 2.36718,-1.92772 3.98437,-1.92773 0.90625,10e-6 1.70898,0.18165 2.40821,0.54492 0.69921,0.36329 1.33788,0.92774 1.91601,1.69336 z m -2.76562,8.49609 c 0.89843,0 1.58397,-0.32812 2.05664,-0.98437 0.47264,-0.65625 0.70897,-1.60937 0.70898,-2.85938 -1e-5,-1.24999 -0.23634,-2.20311 -0.70898,-2.85937 -0.47267,-0.65624 -1.15821,-0.98437 -2.05664,-0.98438 -0.89063,10e-6 -1.57227,0.32814 -2.04492,0.98438 -0.47267,0.65626 -0.70899,1.60938 -0.70899,2.85937 0,1.25001 0.23632,2.20313 0.70899,2.85938 0.47265,0.65625 1.15429,0.98437 2.04492,0.98437 z" style="" id="path3074"/>
      <path d="m 315.69531,854.86609 4.51172,0 0,17.49609 -4.51172,0 z" style="" id="path3076"/>
      <path d="m 337.65625,864.37 0,7.99218 -4.21875,0 0,-1.30078 0,-4.8164 c -10e-6,-1.13281 -0.0254,-1.91406 -0.0762,-2.34375 -0.0508,-0.42968 -0.13868,-0.74609 -0.26367,-0.94922 -0.16408,-0.27343 -0.38673,-0.48632 -0.66797,-0.63868 -0.28126,-0.15233 -0.60157,-0.2285 -0.96094,-0.22851 -0.87501,10e-6 -1.56251,0.3379 -2.0625,1.01367 -0.50001,0.67579 -0.75001,1.61134 -0.75,2.80664 l 0,6.45703 -4.19531,0 0,-13.125 4.19531,0 0,1.92188 c 0.63281,-0.76562 1.30468,-1.33007 2.01562,-1.69336 0.71093,-0.36327 1.49609,-0.54491 2.35547,-0.54492 1.51562,10e-6 2.66601,0.46485 3.45118,1.39453 0.78514,0.9297 1.17771,2.28126 1.17773,4.05469 z" style="" id="path3078"/>
      <path d="m 350.20703,854.12781 0,2.7539 -2.32031,0 c -0.59376,2e-5 -1.00782,0.10744 -1.24219,0.32227 -0.23438,0.21486 -0.35157,0.5879 -0.35156,1.11914 l 0,0.91406 3.58594,0 0,3 -3.58594,0 0,10.125 -4.19531,0 0,-10.125 -2.08594,0 0,-3 2.08594,0 0,-0.91406 c -1e-5,-1.42967 0.39843,-2.48631 1.19531,-3.16992 0.79687,-0.68358 2.03124,-1.02537 3.70312,-1.02539 z" style="" id="path3080"/>
      <path d="m 358.26953,861.92078 c -0.92969,10e-6 -1.63868,0.33399 -2.12695,1.00195 -0.48829,0.66798 -0.73243,1.63087 -0.73242,2.88867 -1e-5,1.25782 0.24413,2.22071 0.73242,2.88867 0.48827,0.66797 1.19726,1.00196 2.12695,1.00196 0.91405,0 1.61327,-0.33399 2.09766,-1.00196 0.48436,-0.66796 0.72655,-1.63085 0.72656,-2.88867 -10e-6,-1.2578 -0.2422,-2.22069 -0.72656,-2.88867 -0.48439,-0.66796 -1.18361,-1.00194 -2.09766,-1.00195 z m 0,-3 c 2.2578,10e-6 4.02147,0.60938 5.29102,1.82812 1.26951,1.21876 1.90428,2.90626 1.90429,5.0625 -10e-6,2.15626 -0.63478,3.84375 -1.90429,5.0625 -1.26955,1.21875 -3.03322,1.82813 -5.29102,1.82813 -2.26563,0 -4.03711,-0.60938 -5.31445,-1.82813 -1.27735,-1.21875 -1.91602,-2.90624 -1.91602,-5.0625 0,-2.15624 0.63867,-3.84374 1.91602,-5.0625 1.27734,-1.21874 3.04882,-1.82811 5.31445,-1.82812 z" style="" id="path3082"/>
    </g>
  </g>
</svg>